<mxfile host="65bd71144e">
    <diagram id="PS_w-CwXK0_uvmPeMOLf" name="Page-1">
        <mxGraphModel dx="953" dy="-222" grid="1" gridSize="10" guides="1" tooltips="1" connect="1" arrows="1" fold="1" page="1" pageScale="1" pageWidth="1600" pageHeight="900" math="0" shadow="0">
            <root>
                <mxCell id="0"/>
                <mxCell id="1" parent="0"/>
                <mxCell id="91" value="" style="group" parent="1" vertex="1" connectable="0">
                    <mxGeometry x="1000" y="960" width="150" height="720" as="geometry"/>
                </mxCell>
                <mxCell id="50" value="" style="group" parent="91" vertex="1" connectable="0">
                    <mxGeometry width="150" height="150" as="geometry"/>
                </mxCell>
                <mxCell id="51" value="" style="rounded=0;whiteSpace=wrap;html=1;" parent="50" vertex="1">
                    <mxGeometry x="30" width="90" height="150" as="geometry"/>
                </mxCell>
                <mxCell id="52" value="" style="endArrow=none;html=1;align=center;fontSize=30;entryX=0;entryY=0.267;entryDx=0;entryDy=0;entryPerimeter=0;" parent="50" target="51" edge="1">
                    <mxGeometry width="50" height="50" relative="1" as="geometry">
                        <mxPoint y="40" as="sourcePoint"/>
                        <mxPoint x="20" y="40" as="targetPoint"/>
                    </mxGeometry>
                </mxCell>
                <mxCell id="53" value="D" style="edgeLabel;html=1;align=center;verticalAlign=middle;resizable=0;points=[];fontSize=30;" parent="52" vertex="1" connectable="0">
                    <mxGeometry x="0.28" relative="1" as="geometry">
                        <mxPoint x="27" as="offset"/>
                    </mxGeometry>
                </mxCell>
                <mxCell id="54" value="" style="endArrow=none;html=1;align=center;exitX=1;exitY=0.267;exitDx=0;exitDy=0;fontSize=30;exitPerimeter=0;" parent="50" source="51" edge="1">
                    <mxGeometry width="50" height="50" relative="1" as="geometry">
                        <mxPoint x="135.55555555555566" y="30" as="sourcePoint"/>
                        <mxPoint x="150" y="40" as="targetPoint"/>
                    </mxGeometry>
                </mxCell>
                <mxCell id="55" value="Q" style="edgeLabel;html=1;align=center;verticalAlign=middle;resizable=0;points=[];fontSize=30;" parent="54" vertex="1" connectable="0">
                    <mxGeometry x="0.28" relative="1" as="geometry">
                        <mxPoint x="-39" as="offset"/>
                    </mxGeometry>
                </mxCell>
                <mxCell id="56" value="" style="endArrow=none;html=1;align=center;fontSize=30;entryX=0;entryY=0.5;entryDx=0;entryDy=0;" parent="50" target="57" edge="1">
                    <mxGeometry width="50" height="50" relative="1" as="geometry">
                        <mxPoint y="110" as="sourcePoint"/>
                        <mxPoint x="20" y="109.98000000000002" as="targetPoint"/>
                    </mxGeometry>
                </mxCell>
                <mxCell id="57" value="" style="triangle;whiteSpace=wrap;html=1;" parent="50" vertex="1">
                    <mxGeometry x="30.00444444444429" y="97.5" width="22.22222222222222" height="25" as="geometry"/>
                </mxCell>
                <mxCell id="58" value="" style="group" parent="91" vertex="1" connectable="0">
                    <mxGeometry y="190" width="150" height="150" as="geometry"/>
                </mxCell>
                <mxCell id="59" value="" style="rounded=0;whiteSpace=wrap;html=1;" parent="58" vertex="1">
                    <mxGeometry x="30" width="90" height="150" as="geometry"/>
                </mxCell>
                <mxCell id="60" value="" style="endArrow=none;html=1;align=center;fontSize=30;entryX=0;entryY=0.267;entryDx=0;entryDy=0;entryPerimeter=0;" parent="58" target="59" edge="1">
                    <mxGeometry width="50" height="50" relative="1" as="geometry">
                        <mxPoint y="40" as="sourcePoint"/>
                        <mxPoint x="20" y="40" as="targetPoint"/>
                    </mxGeometry>
                </mxCell>
                <mxCell id="61" value="D" style="edgeLabel;html=1;align=center;verticalAlign=middle;resizable=0;points=[];fontSize=30;" parent="60" vertex="1" connectable="0">
                    <mxGeometry x="0.28" relative="1" as="geometry">
                        <mxPoint x="27" as="offset"/>
                    </mxGeometry>
                </mxCell>
                <mxCell id="62" value="" style="endArrow=none;html=1;align=center;exitX=1;exitY=0.267;exitDx=0;exitDy=0;fontSize=30;exitPerimeter=0;" parent="58" source="59" edge="1">
                    <mxGeometry width="50" height="50" relative="1" as="geometry">
                        <mxPoint x="135.55555555555566" y="30" as="sourcePoint"/>
                        <mxPoint x="150" y="40" as="targetPoint"/>
                    </mxGeometry>
                </mxCell>
                <mxCell id="63" value="Q" style="edgeLabel;html=1;align=center;verticalAlign=middle;resizable=0;points=[];fontSize=30;" parent="62" vertex="1" connectable="0">
                    <mxGeometry x="0.28" relative="1" as="geometry">
                        <mxPoint x="-39" as="offset"/>
                    </mxGeometry>
                </mxCell>
                <mxCell id="64" value="" style="endArrow=none;html=1;align=center;fontSize=30;entryX=0;entryY=0.5;entryDx=0;entryDy=0;" parent="58" target="65" edge="1">
                    <mxGeometry width="50" height="50" relative="1" as="geometry">
                        <mxPoint y="110" as="sourcePoint"/>
                        <mxPoint x="20" y="109.98000000000002" as="targetPoint"/>
                    </mxGeometry>
                </mxCell>
                <mxCell id="65" value="" style="triangle;whiteSpace=wrap;html=1;" parent="58" vertex="1">
                    <mxGeometry x="30.00444444444429" y="97.5" width="22.22222222222222" height="25" as="geometry"/>
                </mxCell>
                <mxCell id="66" value="" style="endArrow=none;html=1;align=center;fontSize=30;" parent="91" edge="1">
                    <mxGeometry width="50" height="50" relative="1" as="geometry">
                        <mxPoint x="150" y="40" as="sourcePoint"/>
                        <mxPoint x="150" y="170" as="targetPoint"/>
                    </mxGeometry>
                </mxCell>
                <mxCell id="67" value="" style="endArrow=none;html=1;align=center;fontSize=30;" parent="91" edge="1">
                    <mxGeometry width="50" height="50" relative="1" as="geometry">
                        <mxPoint y="170" as="sourcePoint"/>
                        <mxPoint x="150" y="170" as="targetPoint"/>
                    </mxGeometry>
                </mxCell>
                <mxCell id="68" value="" style="endArrow=none;html=1;align=center;fontSize=30;" parent="91" edge="1">
                    <mxGeometry width="50" height="50" relative="1" as="geometry">
                        <mxPoint y="170" as="sourcePoint"/>
                        <mxPoint y="230" as="targetPoint"/>
                    </mxGeometry>
                </mxCell>
                <mxCell id="69" value="" style="group" parent="91" vertex="1" connectable="0">
                    <mxGeometry y="380" width="150" height="150" as="geometry"/>
                </mxCell>
                <mxCell id="70" value="" style="rounded=0;whiteSpace=wrap;html=1;" parent="69" vertex="1">
                    <mxGeometry x="30" width="90" height="150" as="geometry"/>
                </mxCell>
                <mxCell id="71" value="" style="endArrow=none;html=1;align=center;fontSize=30;entryX=0;entryY=0.267;entryDx=0;entryDy=0;entryPerimeter=0;" parent="69" target="70" edge="1">
                    <mxGeometry width="50" height="50" relative="1" as="geometry">
                        <mxPoint y="40" as="sourcePoint"/>
                        <mxPoint x="20" y="40" as="targetPoint"/>
                    </mxGeometry>
                </mxCell>
                <mxCell id="72" value="D" style="edgeLabel;html=1;align=center;verticalAlign=middle;resizable=0;points=[];fontSize=30;" parent="71" vertex="1" connectable="0">
                    <mxGeometry x="0.28" relative="1" as="geometry">
                        <mxPoint x="27" as="offset"/>
                    </mxGeometry>
                </mxCell>
                <mxCell id="73" value="" style="endArrow=none;html=1;align=center;exitX=1;exitY=0.267;exitDx=0;exitDy=0;fontSize=30;exitPerimeter=0;" parent="69" source="70" edge="1">
                    <mxGeometry width="50" height="50" relative="1" as="geometry">
                        <mxPoint x="135.55555555555566" y="30" as="sourcePoint"/>
                        <mxPoint x="150" y="40" as="targetPoint"/>
                    </mxGeometry>
                </mxCell>
                <mxCell id="74" value="Q" style="edgeLabel;html=1;align=center;verticalAlign=middle;resizable=0;points=[];fontSize=30;" parent="73" vertex="1" connectable="0">
                    <mxGeometry x="0.28" relative="1" as="geometry">
                        <mxPoint x="-39" as="offset"/>
                    </mxGeometry>
                </mxCell>
                <mxCell id="75" value="" style="endArrow=none;html=1;align=center;fontSize=30;entryX=0;entryY=0.5;entryDx=0;entryDy=0;" parent="69" target="76" edge="1">
                    <mxGeometry width="50" height="50" relative="1" as="geometry">
                        <mxPoint y="110" as="sourcePoint"/>
                        <mxPoint x="20" y="109.98000000000002" as="targetPoint"/>
                    </mxGeometry>
                </mxCell>
                <mxCell id="76" value="" style="triangle;whiteSpace=wrap;html=1;" parent="69" vertex="1">
                    <mxGeometry x="30.00444444444429" y="97.5" width="22.22222222222222" height="25" as="geometry"/>
                </mxCell>
                <mxCell id="77" value="" style="endArrow=none;html=1;align=center;fontSize=30;" parent="91" edge="1">
                    <mxGeometry width="50" height="50" relative="1" as="geometry">
                        <mxPoint x="150" y="230" as="sourcePoint"/>
                        <mxPoint x="150" y="360" as="targetPoint"/>
                    </mxGeometry>
                </mxCell>
                <mxCell id="78" value="" style="endArrow=none;html=1;align=center;fontSize=30;" parent="91" edge="1">
                    <mxGeometry width="50" height="50" relative="1" as="geometry">
                        <mxPoint y="360" as="sourcePoint"/>
                        <mxPoint x="150" y="360" as="targetPoint"/>
                    </mxGeometry>
                </mxCell>
                <mxCell id="79" value="" style="endArrow=none;html=1;align=center;fontSize=30;" parent="91" edge="1">
                    <mxGeometry width="50" height="50" relative="1" as="geometry">
                        <mxPoint y="360" as="sourcePoint"/>
                        <mxPoint y="420" as="targetPoint"/>
                    </mxGeometry>
                </mxCell>
                <mxCell id="80" value="" style="group" parent="91" vertex="1" connectable="0">
                    <mxGeometry y="570" width="150" height="150" as="geometry"/>
                </mxCell>
                <mxCell id="81" value="" style="rounded=0;whiteSpace=wrap;html=1;" parent="80" vertex="1">
                    <mxGeometry x="30" width="90" height="150" as="geometry"/>
                </mxCell>
                <mxCell id="82" value="" style="endArrow=none;html=1;align=center;fontSize=30;entryX=0;entryY=0.267;entryDx=0;entryDy=0;entryPerimeter=0;" parent="80" target="81" edge="1">
                    <mxGeometry width="50" height="50" relative="1" as="geometry">
                        <mxPoint y="40" as="sourcePoint"/>
                        <mxPoint x="20" y="40" as="targetPoint"/>
                    </mxGeometry>
                </mxCell>
                <mxCell id="83" value="D" style="edgeLabel;html=1;align=center;verticalAlign=middle;resizable=0;points=[];fontSize=30;" parent="82" vertex="1" connectable="0">
                    <mxGeometry x="0.28" relative="1" as="geometry">
                        <mxPoint x="27" as="offset"/>
                    </mxGeometry>
                </mxCell>
                <mxCell id="84" value="" style="endArrow=none;html=1;align=center;exitX=1;exitY=0.267;exitDx=0;exitDy=0;fontSize=30;exitPerimeter=0;" parent="80" source="81" edge="1">
                    <mxGeometry width="50" height="50" relative="1" as="geometry">
                        <mxPoint x="135.55555555555566" y="30" as="sourcePoint"/>
                        <mxPoint x="150" y="40" as="targetPoint"/>
                    </mxGeometry>
                </mxCell>
                <mxCell id="85" value="Q" style="edgeLabel;html=1;align=center;verticalAlign=middle;resizable=0;points=[];fontSize=30;" parent="84" vertex="1" connectable="0">
                    <mxGeometry x="0.28" relative="1" as="geometry">
                        <mxPoint x="-39" as="offset"/>
                    </mxGeometry>
                </mxCell>
                <mxCell id="86" value="" style="endArrow=none;html=1;align=center;fontSize=30;entryX=0;entryY=0.5;entryDx=0;entryDy=0;" parent="80" target="87" edge="1">
                    <mxGeometry width="50" height="50" relative="1" as="geometry">
                        <mxPoint y="110" as="sourcePoint"/>
                        <mxPoint x="20" y="109.98000000000002" as="targetPoint"/>
                    </mxGeometry>
                </mxCell>
                <mxCell id="87" value="" style="triangle;whiteSpace=wrap;html=1;" parent="80" vertex="1">
                    <mxGeometry x="30.00444444444429" y="97.5" width="22.22222222222222" height="25" as="geometry"/>
                </mxCell>
                <mxCell id="88" value="" style="endArrow=none;html=1;align=center;fontSize=30;" parent="91" edge="1">
                    <mxGeometry width="50" height="50" relative="1" as="geometry">
                        <mxPoint x="150" y="420" as="sourcePoint"/>
                        <mxPoint x="150" y="550" as="targetPoint"/>
                    </mxGeometry>
                </mxCell>
                <mxCell id="89" value="" style="endArrow=none;html=1;align=center;fontSize=30;" parent="91" edge="1">
                    <mxGeometry width="50" height="50" relative="1" as="geometry">
                        <mxPoint y="550" as="sourcePoint"/>
                        <mxPoint x="150" y="550" as="targetPoint"/>
                    </mxGeometry>
                </mxCell>
                <mxCell id="90" value="" style="endArrow=none;html=1;align=center;fontSize=30;" parent="91" edge="1">
                    <mxGeometry width="50" height="50" relative="1" as="geometry">
                        <mxPoint y="550" as="sourcePoint"/>
                        <mxPoint y="610" as="targetPoint"/>
                    </mxGeometry>
                </mxCell>
                <mxCell id="234" value="" style="group" parent="1" vertex="1" connectable="0">
                    <mxGeometry x="120" y="1040" width="630" height="195" as="geometry"/>
                </mxCell>
                <mxCell id="2" value="Takt" style="endArrow=none;html=1;align=center;fontSize=30;entryX=0;entryY=0.5;entryDx=0;entryDy=0;" parent="234" edge="1">
                    <mxGeometry x="-1" y="-40" width="50" height="50" relative="1" as="geometry">
                        <mxPoint y="189.90999999999985" as="sourcePoint"/>
                        <mxPoint x="30.00444444444429" y="189.90999999999985" as="targetPoint"/>
                        <mxPoint x="-40" y="-40" as="offset"/>
                    </mxGeometry>
                </mxCell>
                <mxCell id="3" value="" style="group" parent="234" vertex="1" connectable="0">
                    <mxGeometry x="30" width="150" height="150" as="geometry"/>
                </mxCell>
                <mxCell id="4" value="" style="rounded=0;whiteSpace=wrap;html=1;" parent="3" vertex="1">
                    <mxGeometry x="30" width="90" height="150" as="geometry"/>
                </mxCell>
                <mxCell id="5" value="" style="endArrow=none;html=1;align=center;fontSize=30;entryX=0;entryY=0.267;entryDx=0;entryDy=0;entryPerimeter=0;" parent="3" target="4" edge="1">
                    <mxGeometry width="50" height="50" relative="1" as="geometry">
                        <mxPoint y="40" as="sourcePoint"/>
                        <mxPoint x="20" y="40" as="targetPoint"/>
                    </mxGeometry>
                </mxCell>
                <mxCell id="6" value="D&lt;sub&gt;3&lt;/sub&gt;" style="edgeLabel;html=1;align=left;verticalAlign=middle;resizable=0;points=[];fontSize=30;" parent="5" vertex="1" connectable="0">
                    <mxGeometry x="0.28" relative="1" as="geometry">
                        <mxPoint x="11" as="offset"/>
                    </mxGeometry>
                </mxCell>
                <mxCell id="7" value="" style="endArrow=none;html=1;align=center;exitX=1;exitY=0.267;exitDx=0;exitDy=0;fontSize=30;exitPerimeter=0;" parent="3" source="4" edge="1">
                    <mxGeometry width="50" height="50" relative="1" as="geometry">
                        <mxPoint x="135.55555555555566" y="30" as="sourcePoint"/>
                        <mxPoint x="150" y="40" as="targetPoint"/>
                    </mxGeometry>
                </mxCell>
                <mxCell id="8" value="Q&lt;sub&gt;3&lt;br&gt;&lt;/sub&gt;" style="edgeLabel;html=1;align=right;verticalAlign=middle;resizable=0;points=[];fontSize=30;" parent="7" vertex="1" connectable="0">
                    <mxGeometry x="0.28" relative="1" as="geometry">
                        <mxPoint x="-19" as="offset"/>
                    </mxGeometry>
                </mxCell>
                <mxCell id="9" value="" style="endArrow=none;html=1;align=center;fontSize=30;entryX=0;entryY=0.5;entryDx=0;entryDy=0;" parent="3" target="10" edge="1">
                    <mxGeometry width="50" height="50" relative="1" as="geometry">
                        <mxPoint y="110" as="sourcePoint"/>
                        <mxPoint x="20" y="109.98000000000002" as="targetPoint"/>
                    </mxGeometry>
                </mxCell>
                <mxCell id="10" value="" style="triangle;whiteSpace=wrap;html=1;" parent="3" vertex="1">
                    <mxGeometry x="30.00444444444429" y="97.5" width="22.22222222222222" height="25" as="geometry"/>
                </mxCell>
                <mxCell id="11" value="" style="group" parent="234" vertex="1" connectable="0">
                    <mxGeometry x="180" width="150" height="150" as="geometry"/>
                </mxCell>
                <mxCell id="12" value="" style="rounded=0;whiteSpace=wrap;html=1;" parent="11" vertex="1">
                    <mxGeometry x="30" width="90" height="150" as="geometry"/>
                </mxCell>
                <mxCell id="13" value="" style="endArrow=none;html=1;align=center;fontSize=30;entryX=0;entryY=0.267;entryDx=0;entryDy=0;entryPerimeter=0;" parent="11" target="12" edge="1">
                    <mxGeometry width="50" height="50" relative="1" as="geometry">
                        <mxPoint y="40" as="sourcePoint"/>
                        <mxPoint x="20" y="40" as="targetPoint"/>
                    </mxGeometry>
                </mxCell>
                <mxCell id="14" value="D&lt;sub&gt;2&lt;/sub&gt;" style="edgeLabel;html=1;align=left;verticalAlign=middle;resizable=0;points=[];fontSize=30;" parent="13" vertex="1" connectable="0">
                    <mxGeometry x="0.28" relative="1" as="geometry">
                        <mxPoint x="11" as="offset"/>
                    </mxGeometry>
                </mxCell>
                <mxCell id="15" value="" style="endArrow=none;html=1;align=center;exitX=1;exitY=0.267;exitDx=0;exitDy=0;fontSize=30;exitPerimeter=0;" parent="11" source="12" edge="1">
                    <mxGeometry width="50" height="50" relative="1" as="geometry">
                        <mxPoint x="135.55555555555566" y="30" as="sourcePoint"/>
                        <mxPoint x="150" y="40" as="targetPoint"/>
                    </mxGeometry>
                </mxCell>
                <mxCell id="16" value="Q&lt;sub&gt;2&lt;/sub&gt;" style="edgeLabel;html=1;align=right;verticalAlign=middle;resizable=0;points=[];fontSize=30;" parent="15" vertex="1" connectable="0">
                    <mxGeometry x="0.28" relative="1" as="geometry">
                        <mxPoint x="-19" as="offset"/>
                    </mxGeometry>
                </mxCell>
                <mxCell id="17" value="" style="endArrow=none;html=1;align=center;fontSize=30;entryX=0;entryY=0.5;entryDx=0;entryDy=0;" parent="11" target="18" edge="1">
                    <mxGeometry width="50" height="50" relative="1" as="geometry">
                        <mxPoint y="110" as="sourcePoint"/>
                        <mxPoint x="20" y="109.98000000000002" as="targetPoint"/>
                    </mxGeometry>
                </mxCell>
                <mxCell id="18" value="" style="triangle;whiteSpace=wrap;html=1;" parent="11" vertex="1">
                    <mxGeometry x="30.00444444444429" y="97.5" width="22.22222222222222" height="25" as="geometry"/>
                </mxCell>
                <mxCell id="20" value="" style="group" parent="234" vertex="1" connectable="0">
                    <mxGeometry x="330" width="150" height="150" as="geometry"/>
                </mxCell>
                <mxCell id="21" value="" style="rounded=0;whiteSpace=wrap;html=1;" parent="20" vertex="1">
                    <mxGeometry x="30" width="90" height="150" as="geometry"/>
                </mxCell>
                <mxCell id="22" value="" style="endArrow=none;html=1;align=center;fontSize=30;entryX=0;entryY=0.267;entryDx=0;entryDy=0;entryPerimeter=0;" parent="20" target="21" edge="1">
                    <mxGeometry width="50" height="50" relative="1" as="geometry">
                        <mxPoint y="40" as="sourcePoint"/>
                        <mxPoint x="20" y="40" as="targetPoint"/>
                    </mxGeometry>
                </mxCell>
                <mxCell id="23" value="D&lt;sub&gt;1&lt;/sub&gt;" style="edgeLabel;html=1;align=left;verticalAlign=middle;resizable=0;points=[];fontSize=30;" parent="22" vertex="1" connectable="0">
                    <mxGeometry x="0.28" relative="1" as="geometry">
                        <mxPoint x="11" as="offset"/>
                    </mxGeometry>
                </mxCell>
                <mxCell id="24" value="" style="endArrow=none;html=1;align=center;exitX=1;exitY=0.267;exitDx=0;exitDy=0;fontSize=30;exitPerimeter=0;" parent="20" source="21" edge="1">
                    <mxGeometry width="50" height="50" relative="1" as="geometry">
                        <mxPoint x="135.55555555555566" y="30" as="sourcePoint"/>
                        <mxPoint x="150" y="40" as="targetPoint"/>
                    </mxGeometry>
                </mxCell>
                <mxCell id="25" value="Q&lt;sub&gt;1&lt;/sub&gt;" style="edgeLabel;html=1;align=right;verticalAlign=middle;resizable=0;points=[];fontSize=30;" parent="24" vertex="1" connectable="0">
                    <mxGeometry x="0.28" relative="1" as="geometry">
                        <mxPoint x="-19" as="offset"/>
                    </mxGeometry>
                </mxCell>
                <mxCell id="26" value="" style="endArrow=none;html=1;align=center;fontSize=30;entryX=0;entryY=0.5;entryDx=0;entryDy=0;" parent="20" target="27" edge="1">
                    <mxGeometry width="50" height="50" relative="1" as="geometry">
                        <mxPoint y="110" as="sourcePoint"/>
                        <mxPoint x="20" y="109.98000000000002" as="targetPoint"/>
                    </mxGeometry>
                </mxCell>
                <mxCell id="27" value="" style="triangle;whiteSpace=wrap;html=1;" parent="20" vertex="1">
                    <mxGeometry x="30.00444444444429" y="97.5" width="22.22222222222222" height="25" as="geometry"/>
                </mxCell>
                <mxCell id="28" value="" style="group" parent="234" vertex="1" connectable="0">
                    <mxGeometry x="480" width="150" height="150" as="geometry"/>
                </mxCell>
                <mxCell id="29" value="" style="rounded=0;whiteSpace=wrap;html=1;" parent="28" vertex="1">
                    <mxGeometry x="30" width="90" height="150" as="geometry"/>
                </mxCell>
                <mxCell id="30" value="" style="endArrow=none;html=1;align=center;fontSize=30;entryX=0;entryY=0.267;entryDx=0;entryDy=0;entryPerimeter=0;" parent="28" target="29" edge="1">
                    <mxGeometry width="50" height="50" relative="1" as="geometry">
                        <mxPoint y="40" as="sourcePoint"/>
                        <mxPoint x="20" y="40" as="targetPoint"/>
                    </mxGeometry>
                </mxCell>
                <mxCell id="31" value="D&lt;sub&gt;0&lt;/sub&gt;" style="edgeLabel;html=1;align=left;verticalAlign=middle;resizable=0;points=[];fontSize=30;" parent="30" vertex="1" connectable="0">
                    <mxGeometry x="0.28" relative="1" as="geometry">
                        <mxPoint x="11" as="offset"/>
                    </mxGeometry>
                </mxCell>
                <mxCell id="32" value="" style="endArrow=none;html=1;align=center;exitX=1;exitY=0.267;exitDx=0;exitDy=0;fontSize=30;exitPerimeter=0;" parent="28" source="29" edge="1">
                    <mxGeometry width="50" height="50" relative="1" as="geometry">
                        <mxPoint x="135.55555555555566" y="30" as="sourcePoint"/>
                        <mxPoint x="150" y="40" as="targetPoint"/>
                    </mxGeometry>
                </mxCell>
                <mxCell id="33" value="Q&lt;sub&gt;0&lt;/sub&gt;" style="edgeLabel;html=1;align=right;verticalAlign=middle;resizable=0;points=[];fontSize=30;" parent="32" vertex="1" connectable="0">
                    <mxGeometry x="0.28" relative="1" as="geometry">
                        <mxPoint x="-19" as="offset"/>
                    </mxGeometry>
                </mxCell>
                <mxCell id="34" value="" style="endArrow=none;html=1;align=center;fontSize=30;entryX=0;entryY=0.5;entryDx=0;entryDy=0;" parent="28" target="35" edge="1">
                    <mxGeometry width="50" height="50" relative="1" as="geometry">
                        <mxPoint y="110" as="sourcePoint"/>
                        <mxPoint x="20" y="109.98000000000002" as="targetPoint"/>
                    </mxGeometry>
                </mxCell>
                <mxCell id="35" value="" style="triangle;whiteSpace=wrap;html=1;" parent="28" vertex="1">
                    <mxGeometry x="30.00444444444429" y="97.5" width="22.22222222222222" height="25" as="geometry"/>
                </mxCell>
                <mxCell id="36" value="" style="endArrow=none;html=1;align=center;fontSize=30;" parent="234" edge="1">
                    <mxGeometry width="50" height="50" relative="1" as="geometry">
                        <mxPoint x="30" y="190" as="sourcePoint"/>
                        <mxPoint x="30" y="110" as="targetPoint"/>
                    </mxGeometry>
                </mxCell>
                <mxCell id="37" value="" style="endArrow=none;html=1;align=center;fontSize=30;" parent="234" edge="1">
                    <mxGeometry width="50" height="50" relative="1" as="geometry">
                        <mxPoint x="180" y="190" as="sourcePoint"/>
                        <mxPoint x="180" y="110" as="targetPoint"/>
                    </mxGeometry>
                </mxCell>
                <mxCell id="38" value="" style="endArrow=none;html=1;align=center;fontSize=30;" parent="234" edge="1">
                    <mxGeometry width="50" height="50" relative="1" as="geometry">
                        <mxPoint x="330" y="190" as="sourcePoint"/>
                        <mxPoint x="330" y="110" as="targetPoint"/>
                    </mxGeometry>
                </mxCell>
                <mxCell id="39" value="" style="endArrow=none;html=1;align=center;fontSize=30;" parent="234" edge="1">
                    <mxGeometry width="50" height="50" relative="1" as="geometry">
                        <mxPoint x="479.52" y="190" as="sourcePoint"/>
                        <mxPoint x="479.52" y="110" as="targetPoint"/>
                    </mxGeometry>
                </mxCell>
                <mxCell id="40" value="" style="endArrow=none;html=1;align=center;fontSize=30;exitX=0.9;exitY=0.5;exitDx=0;exitDy=0;exitPerimeter=0;" parent="234" source="46" edge="1">
                    <mxGeometry width="50" height="50" relative="1" as="geometry">
                        <mxPoint y="190" as="sourcePoint"/>
                        <mxPoint x="480" y="190" as="targetPoint"/>
                    </mxGeometry>
                </mxCell>
                <mxCell id="45" value="" style="verticalLabelPosition=bottom;shadow=0;dashed=0;align=center;html=1;verticalAlign=top;shape=mxgraph.electrical.logic_gates.inverting_contact;fillColor=#000000;" parent="234" vertex="1">
                    <mxGeometry x="175" y="185" width="10" height="10" as="geometry"/>
                </mxCell>
                <mxCell id="46" value="" style="verticalLabelPosition=bottom;shadow=0;dashed=0;align=center;html=1;verticalAlign=top;shape=mxgraph.electrical.logic_gates.inverting_contact;fillColor=#000000;" parent="234" vertex="1">
                    <mxGeometry x="25" y="185" width="10" height="10" as="geometry"/>
                </mxCell>
                <mxCell id="47" value="" style="verticalLabelPosition=bottom;shadow=0;dashed=0;align=center;html=1;verticalAlign=top;shape=mxgraph.electrical.logic_gates.inverting_contact;fillColor=#000000;" parent="234" vertex="1">
                    <mxGeometry x="325" y="185" width="10" height="10" as="geometry"/>
                </mxCell>
                <mxCell id="295" value="" style="group" parent="1" vertex="1" connectable="0">
                    <mxGeometry x="880" y="2095" width="760" height="230" as="geometry"/>
                </mxCell>
                <mxCell id="242" value="" style="endArrow=none;html=1;align=center;fontSize=30;" parent="295" edge="1">
                    <mxGeometry width="50" height="50" relative="1" as="geometry">
                        <mxPoint x="730" y="75" as="sourcePoint"/>
                        <mxPoint x="760" y="75" as="targetPoint"/>
                    </mxGeometry>
                </mxCell>
                <mxCell id="243" value="Takt" style="endArrow=none;html=1;align=center;fontSize=30;entryX=0;entryY=0.5;entryDx=0;entryDy=0;" parent="295" edge="1">
                    <mxGeometry x="-1" y="-40" width="50" height="50" relative="1" as="geometry">
                        <mxPoint y="224.90999999999985" as="sourcePoint"/>
                        <mxPoint x="30.00444444444429" y="224.90999999999985" as="targetPoint"/>
                        <mxPoint x="-40" y="-40" as="offset"/>
                    </mxGeometry>
                </mxCell>
                <mxCell id="244" value="" style="group" parent="295" vertex="1" connectable="0">
                    <mxGeometry x="30" y="35" width="150" height="150" as="geometry"/>
                </mxCell>
                <mxCell id="245" value="" style="rounded=0;whiteSpace=wrap;html=1;" parent="244" vertex="1">
                    <mxGeometry x="30" width="90" height="150" as="geometry"/>
                </mxCell>
                <mxCell id="246" value="" style="endArrow=none;html=1;align=center;fontSize=30;entryX=0;entryY=0.267;entryDx=0;entryDy=0;entryPerimeter=0;" parent="244" target="245" edge="1">
                    <mxGeometry width="50" height="50" relative="1" as="geometry">
                        <mxPoint y="40" as="sourcePoint"/>
                        <mxPoint x="20" y="40" as="targetPoint"/>
                    </mxGeometry>
                </mxCell>
                <mxCell id="247" value="D&lt;sub&gt;3&lt;/sub&gt;" style="edgeLabel;html=1;align=left;verticalAlign=middle;resizable=0;points=[];fontSize=30;" parent="246" vertex="1" connectable="0">
                    <mxGeometry x="0.28" relative="1" as="geometry">
                        <mxPoint x="11" as="offset"/>
                    </mxGeometry>
                </mxCell>
                <mxCell id="248" value="" style="endArrow=none;html=1;align=center;exitX=1;exitY=0.267;exitDx=0;exitDy=0;fontSize=30;exitPerimeter=0;" parent="244" source="245" edge="1">
                    <mxGeometry width="50" height="50" relative="1" as="geometry">
                        <mxPoint x="135.55555555555566" y="30" as="sourcePoint"/>
                        <mxPoint x="150" y="40" as="targetPoint"/>
                    </mxGeometry>
                </mxCell>
                <mxCell id="249" value="Q&lt;sub&gt;3&lt;br&gt;&lt;/sub&gt;" style="edgeLabel;html=1;align=right;verticalAlign=middle;resizable=0;points=[];fontSize=30;" parent="248" vertex="1" connectable="0">
                    <mxGeometry x="0.28" relative="1" as="geometry">
                        <mxPoint x="-19" as="offset"/>
                    </mxGeometry>
                </mxCell>
                <mxCell id="250" value="" style="endArrow=none;html=1;align=center;fontSize=30;entryX=0;entryY=0.5;entryDx=0;entryDy=0;" parent="244" target="251" edge="1">
                    <mxGeometry width="50" height="50" relative="1" as="geometry">
                        <mxPoint y="110" as="sourcePoint"/>
                        <mxPoint x="20" y="109.98000000000002" as="targetPoint"/>
                    </mxGeometry>
                </mxCell>
                <mxCell id="251" value="" style="triangle;whiteSpace=wrap;html=1;" parent="244" vertex="1">
                    <mxGeometry x="30.00444444444429" y="97.5" width="22.22222222222222" height="25" as="geometry"/>
                </mxCell>
                <mxCell id="252" value="" style="group" parent="295" vertex="1" connectable="0">
                    <mxGeometry x="280" y="35" width="150" height="150" as="geometry"/>
                </mxCell>
                <mxCell id="253" value="" style="rounded=0;whiteSpace=wrap;html=1;" parent="252" vertex="1">
                    <mxGeometry x="30" width="90" height="150" as="geometry"/>
                </mxCell>
                <mxCell id="256" value="" style="endArrow=none;html=1;align=center;exitX=1;exitY=0.267;exitDx=0;exitDy=0;fontSize=30;exitPerimeter=0;" parent="252" source="253" edge="1">
                    <mxGeometry width="50" height="50" relative="1" as="geometry">
                        <mxPoint x="135.55555555555566" y="30" as="sourcePoint"/>
                        <mxPoint x="150" y="40" as="targetPoint"/>
                    </mxGeometry>
                </mxCell>
                <mxCell id="257" value="Q&lt;sub&gt;2&lt;/sub&gt;" style="edgeLabel;html=1;align=right;verticalAlign=middle;resizable=0;points=[];fontSize=30;" parent="256" vertex="1" connectable="0">
                    <mxGeometry x="0.28" relative="1" as="geometry">
                        <mxPoint x="-19" as="offset"/>
                    </mxGeometry>
                </mxCell>
                <mxCell id="258" value="" style="endArrow=none;html=1;align=center;fontSize=30;entryX=0;entryY=0.5;entryDx=0;entryDy=0;" parent="252" target="259" edge="1">
                    <mxGeometry width="50" height="50" relative="1" as="geometry">
                        <mxPoint y="110" as="sourcePoint"/>
                        <mxPoint x="20" y="109.98000000000002" as="targetPoint"/>
                    </mxGeometry>
                </mxCell>
                <mxCell id="259" value="" style="triangle;whiteSpace=wrap;html=1;" parent="252" vertex="1">
                    <mxGeometry x="30.00444444444429" y="97.5" width="22.22222222222222" height="25" as="geometry"/>
                </mxCell>
                <mxCell id="260" value="" style="group" parent="295" vertex="1" connectable="0">
                    <mxGeometry x="430" y="35" width="150" height="150" as="geometry"/>
                </mxCell>
                <mxCell id="261" value="" style="rounded=0;whiteSpace=wrap;html=1;" parent="260" vertex="1">
                    <mxGeometry x="30" width="90" height="150" as="geometry"/>
                </mxCell>
                <mxCell id="262" value="" style="endArrow=none;html=1;align=center;fontSize=30;entryX=0;entryY=0.267;entryDx=0;entryDy=0;entryPerimeter=0;" parent="260" target="261" edge="1">
                    <mxGeometry width="50" height="50" relative="1" as="geometry">
                        <mxPoint y="40" as="sourcePoint"/>
                        <mxPoint x="20" y="40" as="targetPoint"/>
                    </mxGeometry>
                </mxCell>
                <mxCell id="263" value="D&lt;sub&gt;1&lt;/sub&gt;" style="edgeLabel;html=1;align=left;verticalAlign=middle;resizable=0;points=[];fontSize=30;" parent="262" vertex="1" connectable="0">
                    <mxGeometry x="0.28" relative="1" as="geometry">
                        <mxPoint x="11" as="offset"/>
                    </mxGeometry>
                </mxCell>
                <mxCell id="264" value="" style="endArrow=none;html=1;align=center;exitX=1;exitY=0.267;exitDx=0;exitDy=0;fontSize=30;exitPerimeter=0;" parent="260" source="261" edge="1">
                    <mxGeometry width="50" height="50" relative="1" as="geometry">
                        <mxPoint x="135.55555555555566" y="30" as="sourcePoint"/>
                        <mxPoint x="150" y="40" as="targetPoint"/>
                    </mxGeometry>
                </mxCell>
                <mxCell id="265" value="Q&lt;sub&gt;1&lt;/sub&gt;" style="edgeLabel;html=1;align=right;verticalAlign=middle;resizable=0;points=[];fontSize=30;" parent="264" vertex="1" connectable="0">
                    <mxGeometry x="0.28" relative="1" as="geometry">
                        <mxPoint x="-19" as="offset"/>
                    </mxGeometry>
                </mxCell>
                <mxCell id="266" value="" style="endArrow=none;html=1;align=center;fontSize=30;entryX=0;entryY=0.5;entryDx=0;entryDy=0;" parent="260" target="267" edge="1">
                    <mxGeometry width="50" height="50" relative="1" as="geometry">
                        <mxPoint y="110" as="sourcePoint"/>
                        <mxPoint x="20" y="109.98000000000002" as="targetPoint"/>
                    </mxGeometry>
                </mxCell>
                <mxCell id="267" value="" style="triangle;whiteSpace=wrap;html=1;" parent="260" vertex="1">
                    <mxGeometry x="30.00444444444429" y="97.5" width="22.22222222222222" height="25" as="geometry"/>
                </mxCell>
                <mxCell id="268" value="" style="group" parent="295" vertex="1" connectable="0">
                    <mxGeometry x="580" y="35" width="150" height="150" as="geometry"/>
                </mxCell>
                <mxCell id="269" value="" style="rounded=0;whiteSpace=wrap;html=1;" parent="268" vertex="1">
                    <mxGeometry x="30" width="90" height="150" as="geometry"/>
                </mxCell>
                <mxCell id="270" value="" style="endArrow=none;html=1;align=center;fontSize=30;entryX=0;entryY=0.267;entryDx=0;entryDy=0;entryPerimeter=0;" parent="268" target="269" edge="1">
                    <mxGeometry width="50" height="50" relative="1" as="geometry">
                        <mxPoint y="40" as="sourcePoint"/>
                        <mxPoint x="20" y="40" as="targetPoint"/>
                    </mxGeometry>
                </mxCell>
                <mxCell id="271" value="D&lt;sub&gt;0&lt;/sub&gt;" style="edgeLabel;html=1;align=left;verticalAlign=middle;resizable=0;points=[];fontSize=30;" parent="270" vertex="1" connectable="0">
                    <mxGeometry x="0.28" relative="1" as="geometry">
                        <mxPoint x="11" as="offset"/>
                    </mxGeometry>
                </mxCell>
                <mxCell id="272" value="" style="endArrow=none;html=1;align=center;exitX=1;exitY=0.267;exitDx=0;exitDy=0;fontSize=30;exitPerimeter=0;" parent="268" source="269" edge="1">
                    <mxGeometry width="50" height="50" relative="1" as="geometry">
                        <mxPoint x="135.55555555555566" y="30" as="sourcePoint"/>
                        <mxPoint x="150" y="40" as="targetPoint"/>
                    </mxGeometry>
                </mxCell>
                <mxCell id="273" value="Q&lt;sub&gt;0&lt;/sub&gt;" style="edgeLabel;html=1;align=right;verticalAlign=middle;resizable=0;points=[];fontSize=30;" parent="272" vertex="1" connectable="0">
                    <mxGeometry x="0.28" relative="1" as="geometry">
                        <mxPoint x="-19" as="offset"/>
                    </mxGeometry>
                </mxCell>
                <mxCell id="274" value="" style="endArrow=none;html=1;align=center;fontSize=30;entryX=0;entryY=0.5;entryDx=0;entryDy=0;" parent="268" target="275" edge="1">
                    <mxGeometry width="50" height="50" relative="1" as="geometry">
                        <mxPoint y="110" as="sourcePoint"/>
                        <mxPoint x="20" y="109.98000000000002" as="targetPoint"/>
                    </mxGeometry>
                </mxCell>
                <mxCell id="275" value="" style="triangle;whiteSpace=wrap;html=1;" parent="268" vertex="1">
                    <mxGeometry x="30.00444444444429" y="97.5" width="22.22222222222222" height="25" as="geometry"/>
                </mxCell>
                <mxCell id="276" value="" style="endArrow=none;html=1;align=center;fontSize=30;" parent="295" edge="1">
                    <mxGeometry width="50" height="50" relative="1" as="geometry">
                        <mxPoint x="30" y="225" as="sourcePoint"/>
                        <mxPoint x="30" y="144.99999999999977" as="targetPoint"/>
                    </mxGeometry>
                </mxCell>
                <mxCell id="277" value="" style="endArrow=none;html=1;align=center;fontSize=30;" parent="295" edge="1">
                    <mxGeometry width="50" height="50" relative="1" as="geometry">
                        <mxPoint x="280" y="225" as="sourcePoint"/>
                        <mxPoint x="280" y="144.99999999999977" as="targetPoint"/>
                    </mxGeometry>
                </mxCell>
                <mxCell id="278" value="" style="endArrow=none;html=1;align=center;fontSize=30;" parent="295" edge="1">
                    <mxGeometry width="50" height="50" relative="1" as="geometry">
                        <mxPoint x="430" y="225" as="sourcePoint"/>
                        <mxPoint x="430" y="144.99999999999977" as="targetPoint"/>
                    </mxGeometry>
                </mxCell>
                <mxCell id="279" value="" style="endArrow=none;html=1;align=center;fontSize=30;" parent="295" edge="1">
                    <mxGeometry width="50" height="50" relative="1" as="geometry">
                        <mxPoint x="579.52" y="225" as="sourcePoint"/>
                        <mxPoint x="579.52" y="144.99999999999977" as="targetPoint"/>
                    </mxGeometry>
                </mxCell>
                <mxCell id="280" value="" style="endArrow=none;html=1;align=center;fontSize=30;exitX=0.9;exitY=0.5;exitDx=0;exitDy=0;exitPerimeter=0;" parent="295" source="282" edge="1">
                    <mxGeometry width="50" height="50" relative="1" as="geometry">
                        <mxPoint x="100" y="225" as="sourcePoint"/>
                        <mxPoint x="580" y="225" as="targetPoint"/>
                    </mxGeometry>
                </mxCell>
                <mxCell id="281" value="" style="verticalLabelPosition=bottom;shadow=0;dashed=0;align=center;html=1;verticalAlign=top;shape=mxgraph.electrical.logic_gates.inverting_contact;fillColor=#000000;" parent="295" vertex="1">
                    <mxGeometry x="275" y="220" width="10" height="10" as="geometry"/>
                </mxCell>
                <mxCell id="282" value="" style="verticalLabelPosition=bottom;shadow=0;dashed=0;align=center;html=1;verticalAlign=top;shape=mxgraph.electrical.logic_gates.inverting_contact;fillColor=#000000;" parent="295" vertex="1">
                    <mxGeometry x="25" y="220" width="10" height="10" as="geometry"/>
                </mxCell>
                <mxCell id="283" value="" style="verticalLabelPosition=bottom;shadow=0;dashed=0;align=center;html=1;verticalAlign=top;shape=mxgraph.electrical.logic_gates.inverting_contact;fillColor=#000000;" parent="295" vertex="1">
                    <mxGeometry x="425" y="220" width="10" height="10" as="geometry"/>
                </mxCell>
                <mxCell id="284" style="edgeStyle=orthogonalEdgeStyle;html=1;endArrow=none;endFill=0;rounded=0;" parent="295" source="291" edge="1">
                    <mxGeometry relative="1" as="geometry">
                        <mxPoint x="30" y="75" as="targetPoint"/>
                        <mxPoint x="455" y="-25" as="sourcePoint"/>
                        <Array as="points">
                            <mxPoint x="730" y="5"/>
                            <mxPoint x="30" y="5"/>
                        </Array>
                    </mxGeometry>
                </mxCell>
                <mxCell id="286" value="" style="endArrow=none;html=1;align=center;fontSize=30;edgeStyle=orthogonalEdgeStyle;rounded=0;" parent="295" edge="1">
                    <mxGeometry width="50" height="50" relative="1" as="geometry">
                        <mxPoint x="180" y="45" as="sourcePoint"/>
                        <mxPoint x="175" y="5" as="targetPoint"/>
                        <Array as="points">
                            <mxPoint x="175" y="45"/>
                        </Array>
                    </mxGeometry>
                </mxCell>
                <mxCell id="290" value="" style="verticalLabelPosition=bottom;shadow=0;dashed=0;align=center;html=1;verticalAlign=top;shape=mxgraph.electrical.logic_gates.inverting_contact;fillColor=#000000;" parent="295" vertex="1">
                    <mxGeometry x="170" width="10" height="10" as="geometry"/>
                </mxCell>
                <mxCell id="291" value="" style="verticalLabelPosition=bottom;shadow=0;dashed=0;align=center;html=1;verticalAlign=top;shape=mxgraph.electrical.logic_gates.inverting_contact;fillColor=#000000;" parent="295" vertex="1">
                    <mxGeometry x="725" y="70" width="10" height="10" as="geometry"/>
                </mxCell>
                <mxCell id="293" style="edgeStyle=none;html=1;exitX=0;exitY=0.75;exitDx=0;exitDy=0;exitPerimeter=0;endArrow=none;endFill=0;" parent="295" source="292" edge="1">
                    <mxGeometry relative="1" as="geometry">
                        <mxPoint x="180" y="75" as="targetPoint"/>
                    </mxGeometry>
                </mxCell>
                <mxCell id="292" value="" style="verticalLabelPosition=bottom;shadow=0;dashed=0;align=center;html=1;verticalAlign=top;shape=mxgraph.electrical.logic_gates.logic_gate;operation=xor;" parent="295" vertex="1">
                    <mxGeometry x="180" y="30" width="100" height="60" as="geometry"/>
                </mxCell>
                <mxCell id="254" value="" style="endArrow=none;html=1;align=center;fontSize=30;entryX=0;entryY=0.267;entryDx=0;entryDy=0;entryPerimeter=0;exitX=1;exitY=0.5;exitDx=0;exitDy=0;exitPerimeter=0;" parent="295" source="292" target="253" edge="1">
                    <mxGeometry width="50" height="50" relative="1" as="geometry">
                        <mxPoint x="280" y="75" as="sourcePoint"/>
                        <mxPoint x="300" y="75" as="targetPoint"/>
                    </mxGeometry>
                </mxCell>
                <mxCell id="255" value="D&lt;sub&gt;2&lt;/sub&gt;" style="edgeLabel;html=1;align=left;verticalAlign=middle;resizable=0;points=[];fontSize=30;" parent="254" vertex="1" connectable="0">
                    <mxGeometry x="0.28" relative="1" as="geometry">
                        <mxPoint x="11" y="5" as="offset"/>
                    </mxGeometry>
                </mxCell>
                <mxCell id="296" value="" style="group" parent="1" vertex="1" connectable="0">
                    <mxGeometry x="120" y="2360" width="660" height="285" as="geometry"/>
                </mxCell>
                <mxCell id="297" value="" style="endArrow=none;html=1;align=center;fontSize=30;" parent="296" edge="1">
                    <mxGeometry width="50" height="50" relative="1" as="geometry">
                        <mxPoint x="630" y="130" as="sourcePoint"/>
                        <mxPoint x="660" y="130" as="targetPoint"/>
                    </mxGeometry>
                </mxCell>
                <mxCell id="298" value="Takt" style="endArrow=none;html=1;align=center;fontSize=30;entryX=0;entryY=0.5;entryDx=0;entryDy=0;" parent="296" edge="1">
                    <mxGeometry x="-1" y="-40" width="50" height="50" relative="1" as="geometry">
                        <mxPoint y="279.9099999999996" as="sourcePoint"/>
                        <mxPoint x="30.00444444444429" y="279.9099999999996" as="targetPoint"/>
                        <mxPoint x="-40" y="-40" as="offset"/>
                    </mxGeometry>
                </mxCell>
                <mxCell id="299" value="" style="group" parent="296" vertex="1" connectable="0">
                    <mxGeometry x="30" y="90" width="150" height="150" as="geometry"/>
                </mxCell>
                <mxCell id="300" value="" style="rounded=0;whiteSpace=wrap;html=1;" parent="299" vertex="1">
                    <mxGeometry x="30" width="90" height="150" as="geometry"/>
                </mxCell>
                <mxCell id="301" value="" style="endArrow=none;html=1;align=center;fontSize=30;entryX=0;entryY=0.267;entryDx=0;entryDy=0;entryPerimeter=0;" parent="299" target="300" edge="1">
                    <mxGeometry width="50" height="50" relative="1" as="geometry">
                        <mxPoint y="40" as="sourcePoint"/>
                        <mxPoint x="20" y="40" as="targetPoint"/>
                    </mxGeometry>
                </mxCell>
                <mxCell id="302" value="D&lt;sub&gt;3&lt;/sub&gt;" style="edgeLabel;html=1;align=left;verticalAlign=middle;resizable=0;points=[];fontSize=30;" parent="301" vertex="1" connectable="0">
                    <mxGeometry x="0.28" relative="1" as="geometry">
                        <mxPoint x="11" as="offset"/>
                    </mxGeometry>
                </mxCell>
                <mxCell id="303" value="" style="endArrow=none;html=1;align=center;exitX=1;exitY=0.267;exitDx=0;exitDy=0;fontSize=30;exitPerimeter=0;" parent="299" source="300" edge="1">
                    <mxGeometry width="50" height="50" relative="1" as="geometry">
                        <mxPoint x="135.55555555555566" y="30" as="sourcePoint"/>
                        <mxPoint x="150" y="40" as="targetPoint"/>
                    </mxGeometry>
                </mxCell>
                <mxCell id="304" value="Q&lt;sub&gt;3&lt;br&gt;&lt;/sub&gt;" style="edgeLabel;html=1;align=right;verticalAlign=middle;resizable=0;points=[];fontSize=30;" parent="303" vertex="1" connectable="0">
                    <mxGeometry x="0.28" relative="1" as="geometry">
                        <mxPoint x="-19" as="offset"/>
                    </mxGeometry>
                </mxCell>
                <mxCell id="305" value="" style="endArrow=none;html=1;align=center;fontSize=30;entryX=0;entryY=0.5;entryDx=0;entryDy=0;" parent="299" target="306" edge="1">
                    <mxGeometry width="50" height="50" relative="1" as="geometry">
                        <mxPoint y="110" as="sourcePoint"/>
                        <mxPoint x="20" y="109.98000000000002" as="targetPoint"/>
                    </mxGeometry>
                </mxCell>
                <mxCell id="306" value="" style="triangle;whiteSpace=wrap;html=1;" parent="299" vertex="1">
                    <mxGeometry x="30.00444444444429" y="97.5" width="22.22222222222222" height="25" as="geometry"/>
                </mxCell>
                <mxCell id="307" value="" style="group" parent="296" vertex="1" connectable="0">
                    <mxGeometry x="180" y="90" width="150" height="150" as="geometry"/>
                </mxCell>
                <mxCell id="308" value="" style="rounded=0;whiteSpace=wrap;html=1;" parent="307" vertex="1">
                    <mxGeometry x="30" width="90" height="150" as="geometry"/>
                </mxCell>
                <mxCell id="309" value="" style="endArrow=none;html=1;align=center;fontSize=30;entryX=0;entryY=0.267;entryDx=0;entryDy=0;entryPerimeter=0;" parent="307" target="308" edge="1">
                    <mxGeometry width="50" height="50" relative="1" as="geometry">
                        <mxPoint y="40" as="sourcePoint"/>
                        <mxPoint x="20" y="40" as="targetPoint"/>
                    </mxGeometry>
                </mxCell>
                <mxCell id="310" value="D&lt;sub&gt;2&lt;/sub&gt;" style="edgeLabel;html=1;align=left;verticalAlign=middle;resizable=0;points=[];fontSize=30;" parent="309" vertex="1" connectable="0">
                    <mxGeometry x="0.28" relative="1" as="geometry">
                        <mxPoint x="11" as="offset"/>
                    </mxGeometry>
                </mxCell>
                <mxCell id="311" value="" style="endArrow=none;html=1;align=center;exitX=1;exitY=0.267;exitDx=0;exitDy=0;fontSize=30;exitPerimeter=0;" parent="307" source="308" edge="1">
                    <mxGeometry width="50" height="50" relative="1" as="geometry">
                        <mxPoint x="135.55555555555566" y="30" as="sourcePoint"/>
                        <mxPoint x="150" y="40" as="targetPoint"/>
                    </mxGeometry>
                </mxCell>
                <mxCell id="312" value="Q&lt;sub&gt;2&lt;/sub&gt;" style="edgeLabel;html=1;align=right;verticalAlign=middle;resizable=0;points=[];fontSize=30;" parent="311" vertex="1" connectable="0">
                    <mxGeometry x="0.28" relative="1" as="geometry">
                        <mxPoint x="-19" as="offset"/>
                    </mxGeometry>
                </mxCell>
                <mxCell id="313" value="" style="endArrow=none;html=1;align=center;fontSize=30;entryX=0;entryY=0.5;entryDx=0;entryDy=0;" parent="307" target="314" edge="1">
                    <mxGeometry width="50" height="50" relative="1" as="geometry">
                        <mxPoint y="110" as="sourcePoint"/>
                        <mxPoint x="20" y="109.98000000000002" as="targetPoint"/>
                    </mxGeometry>
                </mxCell>
                <mxCell id="314" value="" style="triangle;whiteSpace=wrap;html=1;" parent="307" vertex="1">
                    <mxGeometry x="30.00444444444429" y="97.5" width="22.22222222222222" height="25" as="geometry"/>
                </mxCell>
                <mxCell id="315" value="" style="group" parent="296" vertex="1" connectable="0">
                    <mxGeometry x="330" y="90" width="150" height="150" as="geometry"/>
                </mxCell>
                <mxCell id="316" value="" style="rounded=0;whiteSpace=wrap;html=1;" parent="315" vertex="1">
                    <mxGeometry x="30" width="90" height="150" as="geometry"/>
                </mxCell>
                <mxCell id="317" value="" style="endArrow=none;html=1;align=center;fontSize=30;entryX=0;entryY=0.267;entryDx=0;entryDy=0;entryPerimeter=0;" parent="315" target="316" edge="1">
                    <mxGeometry width="50" height="50" relative="1" as="geometry">
                        <mxPoint y="40" as="sourcePoint"/>
                        <mxPoint x="20" y="40" as="targetPoint"/>
                    </mxGeometry>
                </mxCell>
                <mxCell id="318" value="D&lt;sub&gt;1&lt;/sub&gt;" style="edgeLabel;html=1;align=left;verticalAlign=middle;resizable=0;points=[];fontSize=30;" parent="317" vertex="1" connectable="0">
                    <mxGeometry x="0.28" relative="1" as="geometry">
                        <mxPoint x="11" as="offset"/>
                    </mxGeometry>
                </mxCell>
                <mxCell id="319" value="" style="endArrow=none;html=1;align=center;exitX=1;exitY=0.267;exitDx=0;exitDy=0;fontSize=30;exitPerimeter=0;" parent="315" source="316" edge="1">
                    <mxGeometry width="50" height="50" relative="1" as="geometry">
                        <mxPoint x="135.55555555555566" y="30" as="sourcePoint"/>
                        <mxPoint x="150" y="40" as="targetPoint"/>
                    </mxGeometry>
                </mxCell>
                <mxCell id="320" value="Q&lt;sub&gt;1&lt;/sub&gt;" style="edgeLabel;html=1;align=right;verticalAlign=middle;resizable=0;points=[];fontSize=30;" parent="319" vertex="1" connectable="0">
                    <mxGeometry x="0.28" relative="1" as="geometry">
                        <mxPoint x="-19" as="offset"/>
                    </mxGeometry>
                </mxCell>
                <mxCell id="321" value="" style="endArrow=none;html=1;align=center;fontSize=30;entryX=0;entryY=0.5;entryDx=0;entryDy=0;" parent="315" target="322" edge="1">
                    <mxGeometry width="50" height="50" relative="1" as="geometry">
                        <mxPoint y="110" as="sourcePoint"/>
                        <mxPoint x="20" y="109.98000000000002" as="targetPoint"/>
                    </mxGeometry>
                </mxCell>
                <mxCell id="322" value="" style="triangle;whiteSpace=wrap;html=1;" parent="315" vertex="1">
                    <mxGeometry x="30.00444444444429" y="97.5" width="22.22222222222222" height="25" as="geometry"/>
                </mxCell>
                <mxCell id="323" value="" style="group" parent="296" vertex="1" connectable="0">
                    <mxGeometry x="480" y="90" width="150" height="150" as="geometry"/>
                </mxCell>
                <mxCell id="324" value="" style="rounded=0;whiteSpace=wrap;html=1;" parent="323" vertex="1">
                    <mxGeometry x="30" width="90" height="150" as="geometry"/>
                </mxCell>
                <mxCell id="325" value="" style="endArrow=none;html=1;align=center;fontSize=30;entryX=0;entryY=0.267;entryDx=0;entryDy=0;entryPerimeter=0;" parent="323" target="324" edge="1">
                    <mxGeometry width="50" height="50" relative="1" as="geometry">
                        <mxPoint y="40" as="sourcePoint"/>
                        <mxPoint x="20" y="40" as="targetPoint"/>
                    </mxGeometry>
                </mxCell>
                <mxCell id="326" value="D&lt;sub&gt;0&lt;/sub&gt;" style="edgeLabel;html=1;align=left;verticalAlign=middle;resizable=0;points=[];fontSize=30;" parent="325" vertex="1" connectable="0">
                    <mxGeometry x="0.28" relative="1" as="geometry">
                        <mxPoint x="11" as="offset"/>
                    </mxGeometry>
                </mxCell>
                <mxCell id="327" value="" style="endArrow=none;html=1;align=center;exitX=1;exitY=0.267;exitDx=0;exitDy=0;fontSize=30;exitPerimeter=0;" parent="323" source="324" edge="1">
                    <mxGeometry width="50" height="50" relative="1" as="geometry">
                        <mxPoint x="135.55555555555566" y="30" as="sourcePoint"/>
                        <mxPoint x="150" y="40" as="targetPoint"/>
                    </mxGeometry>
                </mxCell>
                <mxCell id="328" value="Q&lt;sub&gt;0&lt;/sub&gt;" style="edgeLabel;html=1;align=right;verticalAlign=middle;resizable=0;points=[];fontSize=30;" parent="327" vertex="1" connectable="0">
                    <mxGeometry x="0.28" relative="1" as="geometry">
                        <mxPoint x="-19" as="offset"/>
                    </mxGeometry>
                </mxCell>
                <mxCell id="329" value="" style="endArrow=none;html=1;align=center;fontSize=30;entryX=0;entryY=0.5;entryDx=0;entryDy=0;" parent="323" target="330" edge="1">
                    <mxGeometry width="50" height="50" relative="1" as="geometry">
                        <mxPoint y="110" as="sourcePoint"/>
                        <mxPoint x="20" y="109.98000000000002" as="targetPoint"/>
                    </mxGeometry>
                </mxCell>
                <mxCell id="330" value="" style="triangle;whiteSpace=wrap;html=1;" parent="323" vertex="1">
                    <mxGeometry x="30.00444444444429" y="97.5" width="22.22222222222222" height="25" as="geometry"/>
                </mxCell>
                <mxCell id="331" value="" style="endArrow=none;html=1;align=center;fontSize=30;" parent="296" edge="1">
                    <mxGeometry width="50" height="50" relative="1" as="geometry">
                        <mxPoint x="30" y="279.9999999999998" as="sourcePoint"/>
                        <mxPoint x="30" y="199.99999999999977" as="targetPoint"/>
                    </mxGeometry>
                </mxCell>
                <mxCell id="332" value="" style="endArrow=none;html=1;align=center;fontSize=30;" parent="296" edge="1">
                    <mxGeometry width="50" height="50" relative="1" as="geometry">
                        <mxPoint x="180" y="279.9999999999998" as="sourcePoint"/>
                        <mxPoint x="180" y="199.99999999999977" as="targetPoint"/>
                    </mxGeometry>
                </mxCell>
                <mxCell id="333" value="" style="endArrow=none;html=1;align=center;fontSize=30;" parent="296" edge="1">
                    <mxGeometry width="50" height="50" relative="1" as="geometry">
                        <mxPoint x="330" y="279.9999999999998" as="sourcePoint"/>
                        <mxPoint x="330" y="199.99999999999977" as="targetPoint"/>
                    </mxGeometry>
                </mxCell>
                <mxCell id="334" value="" style="endArrow=none;html=1;align=center;fontSize=30;" parent="296" edge="1">
                    <mxGeometry width="50" height="50" relative="1" as="geometry">
                        <mxPoint x="479.52" y="279.9999999999998" as="sourcePoint"/>
                        <mxPoint x="479.52" y="199.99999999999977" as="targetPoint"/>
                    </mxGeometry>
                </mxCell>
                <mxCell id="335" value="" style="endArrow=none;html=1;align=center;fontSize=30;exitX=0.9;exitY=0.5;exitDx=0;exitDy=0;exitPerimeter=0;" parent="296" source="337" edge="1">
                    <mxGeometry width="50" height="50" relative="1" as="geometry">
                        <mxPoint y="280" as="sourcePoint"/>
                        <mxPoint x="480" y="279.9999999999998" as="targetPoint"/>
                    </mxGeometry>
                </mxCell>
                <mxCell id="336" value="" style="verticalLabelPosition=bottom;shadow=0;dashed=0;align=center;html=1;verticalAlign=top;shape=mxgraph.electrical.logic_gates.inverting_contact;fillColor=#000000;" parent="296" vertex="1">
                    <mxGeometry x="175" y="275" width="10" height="10" as="geometry"/>
                </mxCell>
                <mxCell id="337" value="" style="verticalLabelPosition=bottom;shadow=0;dashed=0;align=center;html=1;verticalAlign=top;shape=mxgraph.electrical.logic_gates.inverting_contact;fillColor=#000000;" parent="296" vertex="1">
                    <mxGeometry x="25" y="275" width="10" height="10" as="geometry"/>
                </mxCell>
                <mxCell id="338" value="" style="verticalLabelPosition=bottom;shadow=0;dashed=0;align=center;html=1;verticalAlign=top;shape=mxgraph.electrical.logic_gates.inverting_contact;fillColor=#000000;" parent="296" vertex="1">
                    <mxGeometry x="325" y="275" width="10" height="10" as="geometry"/>
                </mxCell>
                <mxCell id="339" style="edgeStyle=orthogonalEdgeStyle;html=1;exitX=1;exitY=0.5;exitDx=0;exitDy=0;exitPerimeter=0;endArrow=none;endFill=0;rounded=0;" parent="296" source="340" edge="1">
                    <mxGeometry relative="1" as="geometry">
                        <mxPoint x="30" y="130" as="targetPoint"/>
                    </mxGeometry>
                </mxCell>
                <mxCell id="340" value="" style="verticalLabelPosition=bottom;shadow=0;dashed=0;align=center;html=1;verticalAlign=top;shape=mxgraph.electrical.logic_gates.logic_gate;operation=xor;negating=1;negSize=0.15;rotation=-180;" parent="296" vertex="1">
                    <mxGeometry x="355" width="100" height="60" as="geometry"/>
                </mxCell>
                <mxCell id="341" value="" style="endArrow=none;html=1;align=center;fontSize=30;" parent="296" edge="1">
                    <mxGeometry width="50" height="50" relative="1" as="geometry">
                        <mxPoint x="630" y="130" as="sourcePoint"/>
                        <mxPoint x="630" y="15" as="targetPoint"/>
                    </mxGeometry>
                </mxCell>
                <mxCell id="342" value="" style="endArrow=none;html=1;align=center;fontSize=30;" parent="296" edge="1">
                    <mxGeometry width="50" height="50" relative="1" as="geometry">
                        <mxPoint x="480" y="129.99999999999977" as="sourcePoint"/>
                        <mxPoint x="480" y="45" as="targetPoint"/>
                    </mxGeometry>
                </mxCell>
                <mxCell id="343" value="" style="endArrow=none;html=1;align=center;fontSize=30;entryX=0;entryY=0.25;entryDx=0;entryDy=0;entryPerimeter=0;" parent="296" target="340" edge="1">
                    <mxGeometry width="50" height="50" relative="1" as="geometry">
                        <mxPoint x="480" y="45" as="sourcePoint"/>
                        <mxPoint x="490" y="55" as="targetPoint"/>
                    </mxGeometry>
                </mxCell>
                <mxCell id="344" value="" style="endArrow=none;html=1;align=center;fontSize=30;entryX=0;entryY=0.75;entryDx=0;entryDy=0;entryPerimeter=0;" parent="296" target="340" edge="1">
                    <mxGeometry width="50" height="50" relative="1" as="geometry">
                        <mxPoint x="630" y="15" as="sourcePoint"/>
                        <mxPoint x="465" y="30" as="targetPoint"/>
                    </mxGeometry>
                </mxCell>
                <mxCell id="345" value="" style="verticalLabelPosition=bottom;shadow=0;dashed=0;align=center;html=1;verticalAlign=top;shape=mxgraph.electrical.logic_gates.inverting_contact;fillColor=#000000;" parent="296" vertex="1">
                    <mxGeometry x="475" y="125" width="10" height="10" as="geometry"/>
                </mxCell>
                <mxCell id="346" value="" style="verticalLabelPosition=bottom;shadow=0;dashed=0;align=center;html=1;verticalAlign=top;shape=mxgraph.electrical.logic_gates.inverting_contact;fillColor=#000000;" parent="296" vertex="1">
                    <mxGeometry x="625" y="125" width="10" height="10" as="geometry"/>
                </mxCell>
                <mxCell id="348" value="" style="group" parent="1" vertex="1" connectable="0">
                    <mxGeometry x="120" y="2040" width="660" height="285" as="geometry"/>
                </mxCell>
                <mxCell id="347" value="" style="verticalLabelPosition=bottom;shadow=0;dashed=0;align=center;html=1;verticalAlign=top;shape=mxgraph.electrical.logic_gates.logic_gate;operation=xor;rotation=-180;" parent="348" vertex="1">
                    <mxGeometry x="350" width="100" height="60" as="geometry"/>
                </mxCell>
                <mxCell id="239" value="" style="endArrow=none;html=1;align=center;fontSize=30;" parent="348" edge="1">
                    <mxGeometry width="50" height="50" relative="1" as="geometry">
                        <mxPoint x="630" y="130" as="sourcePoint"/>
                        <mxPoint x="660" y="130" as="targetPoint"/>
                    </mxGeometry>
                </mxCell>
                <mxCell id="183" value="Takt" style="endArrow=none;html=1;align=center;fontSize=30;entryX=0;entryY=0.5;entryDx=0;entryDy=0;" parent="348" edge="1">
                    <mxGeometry x="-1" y="-40" width="50" height="50" relative="1" as="geometry">
                        <mxPoint y="279.9099999999996" as="sourcePoint"/>
                        <mxPoint x="30.00444444444429" y="279.9099999999996" as="targetPoint"/>
                        <mxPoint x="-40" y="-40" as="offset"/>
                    </mxGeometry>
                </mxCell>
                <mxCell id="184" value="" style="group" parent="348" vertex="1" connectable="0">
                    <mxGeometry x="30" y="90" width="150" height="150" as="geometry"/>
                </mxCell>
                <mxCell id="185" value="" style="rounded=0;whiteSpace=wrap;html=1;" parent="184" vertex="1">
                    <mxGeometry x="30" width="90" height="150" as="geometry"/>
                </mxCell>
                <mxCell id="186" value="" style="endArrow=none;html=1;align=center;fontSize=30;entryX=0;entryY=0.267;entryDx=0;entryDy=0;entryPerimeter=0;" parent="184" target="185" edge="1">
                    <mxGeometry width="50" height="50" relative="1" as="geometry">
                        <mxPoint y="40" as="sourcePoint"/>
                        <mxPoint x="20" y="40" as="targetPoint"/>
                    </mxGeometry>
                </mxCell>
                <mxCell id="187" value="D&lt;sub&gt;3&lt;/sub&gt;" style="edgeLabel;html=1;align=left;verticalAlign=middle;resizable=0;points=[];fontSize=30;" parent="186" vertex="1" connectable="0">
                    <mxGeometry x="0.28" relative="1" as="geometry">
                        <mxPoint x="11" as="offset"/>
                    </mxGeometry>
                </mxCell>
                <mxCell id="188" value="" style="endArrow=none;html=1;align=center;exitX=1;exitY=0.267;exitDx=0;exitDy=0;fontSize=30;exitPerimeter=0;" parent="184" source="185" edge="1">
                    <mxGeometry width="50" height="50" relative="1" as="geometry">
                        <mxPoint x="135.55555555555566" y="30" as="sourcePoint"/>
                        <mxPoint x="150" y="40" as="targetPoint"/>
                    </mxGeometry>
                </mxCell>
                <mxCell id="189" value="Q&lt;sub&gt;3&lt;br&gt;&lt;/sub&gt;" style="edgeLabel;html=1;align=right;verticalAlign=middle;resizable=0;points=[];fontSize=30;" parent="188" vertex="1" connectable="0">
                    <mxGeometry x="0.28" relative="1" as="geometry">
                        <mxPoint x="-19" as="offset"/>
                    </mxGeometry>
                </mxCell>
                <mxCell id="190" value="" style="endArrow=none;html=1;align=center;fontSize=30;entryX=0;entryY=0.5;entryDx=0;entryDy=0;" parent="184" target="191" edge="1">
                    <mxGeometry width="50" height="50" relative="1" as="geometry">
                        <mxPoint y="110" as="sourcePoint"/>
                        <mxPoint x="20" y="109.98000000000002" as="targetPoint"/>
                    </mxGeometry>
                </mxCell>
                <mxCell id="191" value="" style="triangle;whiteSpace=wrap;html=1;" parent="184" vertex="1">
                    <mxGeometry x="30.00444444444429" y="97.5" width="22.22222222222222" height="25" as="geometry"/>
                </mxCell>
                <mxCell id="192" value="" style="group" parent="348" vertex="1" connectable="0">
                    <mxGeometry x="180" y="90" width="150" height="150" as="geometry"/>
                </mxCell>
                <mxCell id="193" value="" style="rounded=0;whiteSpace=wrap;html=1;" parent="192" vertex="1">
                    <mxGeometry x="30" width="90" height="150" as="geometry"/>
                </mxCell>
                <mxCell id="194" value="" style="endArrow=none;html=1;align=center;fontSize=30;entryX=0;entryY=0.267;entryDx=0;entryDy=0;entryPerimeter=0;" parent="192" target="193" edge="1">
                    <mxGeometry width="50" height="50" relative="1" as="geometry">
                        <mxPoint y="40" as="sourcePoint"/>
                        <mxPoint x="20" y="40" as="targetPoint"/>
                    </mxGeometry>
                </mxCell>
                <mxCell id="195" value="D&lt;sub&gt;2&lt;/sub&gt;" style="edgeLabel;html=1;align=left;verticalAlign=middle;resizable=0;points=[];fontSize=30;" parent="194" vertex="1" connectable="0">
                    <mxGeometry x="0.28" relative="1" as="geometry">
                        <mxPoint x="11" as="offset"/>
                    </mxGeometry>
                </mxCell>
                <mxCell id="196" value="" style="endArrow=none;html=1;align=center;exitX=1;exitY=0.267;exitDx=0;exitDy=0;fontSize=30;exitPerimeter=0;" parent="192" source="193" edge="1">
                    <mxGeometry width="50" height="50" relative="1" as="geometry">
                        <mxPoint x="135.55555555555566" y="30" as="sourcePoint"/>
                        <mxPoint x="150" y="40" as="targetPoint"/>
                    </mxGeometry>
                </mxCell>
                <mxCell id="197" value="Q&lt;sub&gt;2&lt;/sub&gt;" style="edgeLabel;html=1;align=right;verticalAlign=middle;resizable=0;points=[];fontSize=30;" parent="196" vertex="1" connectable="0">
                    <mxGeometry x="0.28" relative="1" as="geometry">
                        <mxPoint x="-19" as="offset"/>
                    </mxGeometry>
                </mxCell>
                <mxCell id="198" value="" style="endArrow=none;html=1;align=center;fontSize=30;entryX=0;entryY=0.5;entryDx=0;entryDy=0;" parent="192" target="199" edge="1">
                    <mxGeometry width="50" height="50" relative="1" as="geometry">
                        <mxPoint y="110" as="sourcePoint"/>
                        <mxPoint x="20" y="109.98000000000002" as="targetPoint"/>
                    </mxGeometry>
                </mxCell>
                <mxCell id="199" value="" style="triangle;whiteSpace=wrap;html=1;" parent="192" vertex="1">
                    <mxGeometry x="30.00444444444429" y="97.5" width="22.22222222222222" height="25" as="geometry"/>
                </mxCell>
                <mxCell id="200" value="" style="group" parent="348" vertex="1" connectable="0">
                    <mxGeometry x="330" y="90" width="150" height="150" as="geometry"/>
                </mxCell>
                <mxCell id="201" value="" style="rounded=0;whiteSpace=wrap;html=1;" parent="200" vertex="1">
                    <mxGeometry x="30" width="90" height="150" as="geometry"/>
                </mxCell>
                <mxCell id="202" value="" style="endArrow=none;html=1;align=center;fontSize=30;entryX=0;entryY=0.267;entryDx=0;entryDy=0;entryPerimeter=0;" parent="200" target="201" edge="1">
                    <mxGeometry width="50" height="50" relative="1" as="geometry">
                        <mxPoint y="40" as="sourcePoint"/>
                        <mxPoint x="20" y="40" as="targetPoint"/>
                    </mxGeometry>
                </mxCell>
                <mxCell id="203" value="D&lt;sub&gt;1&lt;/sub&gt;" style="edgeLabel;html=1;align=left;verticalAlign=middle;resizable=0;points=[];fontSize=30;" parent="202" vertex="1" connectable="0">
                    <mxGeometry x="0.28" relative="1" as="geometry">
                        <mxPoint x="11" as="offset"/>
                    </mxGeometry>
                </mxCell>
                <mxCell id="204" value="" style="endArrow=none;html=1;align=center;exitX=1;exitY=0.267;exitDx=0;exitDy=0;fontSize=30;exitPerimeter=0;" parent="200" source="201" edge="1">
                    <mxGeometry width="50" height="50" relative="1" as="geometry">
                        <mxPoint x="135.55555555555566" y="30" as="sourcePoint"/>
                        <mxPoint x="150" y="40" as="targetPoint"/>
                    </mxGeometry>
                </mxCell>
                <mxCell id="205" value="Q&lt;sub&gt;1&lt;/sub&gt;" style="edgeLabel;html=1;align=right;verticalAlign=middle;resizable=0;points=[];fontSize=30;" parent="204" vertex="1" connectable="0">
                    <mxGeometry x="0.28" relative="1" as="geometry">
                        <mxPoint x="-19" as="offset"/>
                    </mxGeometry>
                </mxCell>
                <mxCell id="206" value="" style="endArrow=none;html=1;align=center;fontSize=30;entryX=0;entryY=0.5;entryDx=0;entryDy=0;" parent="200" target="207" edge="1">
                    <mxGeometry width="50" height="50" relative="1" as="geometry">
                        <mxPoint y="110" as="sourcePoint"/>
                        <mxPoint x="20" y="109.98000000000002" as="targetPoint"/>
                    </mxGeometry>
                </mxCell>
                <mxCell id="207" value="" style="triangle;whiteSpace=wrap;html=1;" parent="200" vertex="1">
                    <mxGeometry x="30.00444444444429" y="97.5" width="22.22222222222222" height="25" as="geometry"/>
                </mxCell>
                <mxCell id="208" value="" style="group" parent="348" vertex="1" connectable="0">
                    <mxGeometry x="480" y="90" width="150" height="150" as="geometry"/>
                </mxCell>
                <mxCell id="209" value="" style="rounded=0;whiteSpace=wrap;html=1;" parent="208" vertex="1">
                    <mxGeometry x="30" width="90" height="150" as="geometry"/>
                </mxCell>
                <mxCell id="210" value="" style="endArrow=none;html=1;align=center;fontSize=30;entryX=0;entryY=0.267;entryDx=0;entryDy=0;entryPerimeter=0;" parent="208" target="209" edge="1">
                    <mxGeometry width="50" height="50" relative="1" as="geometry">
                        <mxPoint y="40" as="sourcePoint"/>
                        <mxPoint x="20" y="40" as="targetPoint"/>
                    </mxGeometry>
                </mxCell>
                <mxCell id="211" value="D&lt;sub&gt;0&lt;/sub&gt;" style="edgeLabel;html=1;align=left;verticalAlign=middle;resizable=0;points=[];fontSize=30;" parent="210" vertex="1" connectable="0">
                    <mxGeometry x="0.28" relative="1" as="geometry">
                        <mxPoint x="11" as="offset"/>
                    </mxGeometry>
                </mxCell>
                <mxCell id="212" value="" style="endArrow=none;html=1;align=center;exitX=1;exitY=0.267;exitDx=0;exitDy=0;fontSize=30;exitPerimeter=0;" parent="208" source="209" edge="1">
                    <mxGeometry width="50" height="50" relative="1" as="geometry">
                        <mxPoint x="135.55555555555566" y="30" as="sourcePoint"/>
                        <mxPoint x="150" y="40" as="targetPoint"/>
                    </mxGeometry>
                </mxCell>
                <mxCell id="213" value="Q&lt;sub&gt;0&lt;/sub&gt;" style="edgeLabel;html=1;align=right;verticalAlign=middle;resizable=0;points=[];fontSize=30;" parent="212" vertex="1" connectable="0">
                    <mxGeometry x="0.28" relative="1" as="geometry">
                        <mxPoint x="-19" as="offset"/>
                    </mxGeometry>
                </mxCell>
                <mxCell id="214" value="" style="endArrow=none;html=1;align=center;fontSize=30;entryX=0;entryY=0.5;entryDx=0;entryDy=0;" parent="208" target="215" edge="1">
                    <mxGeometry width="50" height="50" relative="1" as="geometry">
                        <mxPoint y="110" as="sourcePoint"/>
                        <mxPoint x="20" y="109.98000000000002" as="targetPoint"/>
                    </mxGeometry>
                </mxCell>
                <mxCell id="215" value="" style="triangle;whiteSpace=wrap;html=1;" parent="208" vertex="1">
                    <mxGeometry x="30.00444444444429" y="97.5" width="22.22222222222222" height="25" as="geometry"/>
                </mxCell>
                <mxCell id="216" value="" style="endArrow=none;html=1;align=center;fontSize=30;" parent="348" edge="1">
                    <mxGeometry width="50" height="50" relative="1" as="geometry">
                        <mxPoint x="30" y="279.9999999999998" as="sourcePoint"/>
                        <mxPoint x="30" y="199.99999999999977" as="targetPoint"/>
                    </mxGeometry>
                </mxCell>
                <mxCell id="217" value="" style="endArrow=none;html=1;align=center;fontSize=30;" parent="348" edge="1">
                    <mxGeometry width="50" height="50" relative="1" as="geometry">
                        <mxPoint x="180" y="279.9999999999998" as="sourcePoint"/>
                        <mxPoint x="180" y="199.99999999999977" as="targetPoint"/>
                    </mxGeometry>
                </mxCell>
                <mxCell id="218" value="" style="endArrow=none;html=1;align=center;fontSize=30;" parent="348" edge="1">
                    <mxGeometry width="50" height="50" relative="1" as="geometry">
                        <mxPoint x="330" y="279.9999999999998" as="sourcePoint"/>
                        <mxPoint x="330" y="199.99999999999977" as="targetPoint"/>
                    </mxGeometry>
                </mxCell>
                <mxCell id="219" value="" style="endArrow=none;html=1;align=center;fontSize=30;" parent="348" edge="1">
                    <mxGeometry width="50" height="50" relative="1" as="geometry">
                        <mxPoint x="479.52" y="279.9999999999998" as="sourcePoint"/>
                        <mxPoint x="479.52" y="199.99999999999977" as="targetPoint"/>
                    </mxGeometry>
                </mxCell>
                <mxCell id="220" value="" style="endArrow=none;html=1;align=center;fontSize=30;exitX=0.9;exitY=0.5;exitDx=0;exitDy=0;exitPerimeter=0;" parent="348" source="223" edge="1">
                    <mxGeometry width="50" height="50" relative="1" as="geometry">
                        <mxPoint y="280" as="sourcePoint"/>
                        <mxPoint x="480" y="279.9999999999998" as="targetPoint"/>
                    </mxGeometry>
                </mxCell>
                <mxCell id="222" value="" style="verticalLabelPosition=bottom;shadow=0;dashed=0;align=center;html=1;verticalAlign=top;shape=mxgraph.electrical.logic_gates.inverting_contact;fillColor=#000000;" parent="348" vertex="1">
                    <mxGeometry x="175" y="275" width="10" height="10" as="geometry"/>
                </mxCell>
                <mxCell id="223" value="" style="verticalLabelPosition=bottom;shadow=0;dashed=0;align=center;html=1;verticalAlign=top;shape=mxgraph.electrical.logic_gates.inverting_contact;fillColor=#000000;" parent="348" vertex="1">
                    <mxGeometry x="25" y="275" width="10" height="10" as="geometry"/>
                </mxCell>
                <mxCell id="224" value="" style="verticalLabelPosition=bottom;shadow=0;dashed=0;align=center;html=1;verticalAlign=top;shape=mxgraph.electrical.logic_gates.inverting_contact;fillColor=#000000;" parent="348" vertex="1">
                    <mxGeometry x="325" y="275" width="10" height="10" as="geometry"/>
                </mxCell>
                <mxCell id="235" style="edgeStyle=orthogonalEdgeStyle;html=1;endArrow=none;endFill=0;rounded=0;" parent="348" edge="1">
                    <mxGeometry relative="1" as="geometry">
                        <mxPoint x="30" y="130" as="targetPoint"/>
                        <mxPoint x="350" y="30" as="sourcePoint"/>
                    </mxGeometry>
                </mxCell>
                <mxCell id="229" value="" style="endArrow=none;html=1;align=center;fontSize=30;" parent="348" edge="1">
                    <mxGeometry width="50" height="50" relative="1" as="geometry">
                        <mxPoint x="630" y="130" as="sourcePoint"/>
                        <mxPoint x="630" y="15" as="targetPoint"/>
                    </mxGeometry>
                </mxCell>
                <mxCell id="230" value="" style="endArrow=none;html=1;align=center;fontSize=30;" parent="348" edge="1">
                    <mxGeometry width="50" height="50" relative="1" as="geometry">
                        <mxPoint x="480" y="129.99999999999977" as="sourcePoint"/>
                        <mxPoint x="480" y="45" as="targetPoint"/>
                    </mxGeometry>
                </mxCell>
                <mxCell id="232" value="" style="endArrow=none;html=1;align=center;fontSize=30;entryX=0;entryY=0.25;entryDx=0;entryDy=0;entryPerimeter=0;" parent="348" target="347" edge="1">
                    <mxGeometry width="50" height="50" relative="1" as="geometry">
                        <mxPoint x="480" y="45" as="sourcePoint"/>
                        <mxPoint x="455" y="45" as="targetPoint"/>
                    </mxGeometry>
                </mxCell>
                <mxCell id="233" value="" style="endArrow=none;html=1;align=center;fontSize=30;entryX=0;entryY=0.75;entryDx=0;entryDy=0;entryPerimeter=0;" parent="348" target="347" edge="1">
                    <mxGeometry width="50" height="50" relative="1" as="geometry">
                        <mxPoint x="630" y="15" as="sourcePoint"/>
                        <mxPoint x="455" y="15" as="targetPoint"/>
                    </mxGeometry>
                </mxCell>
                <mxCell id="236" value="" style="verticalLabelPosition=bottom;shadow=0;dashed=0;align=center;html=1;verticalAlign=top;shape=mxgraph.electrical.logic_gates.inverting_contact;fillColor=#000000;" parent="348" vertex="1">
                    <mxGeometry x="475" y="125" width="10" height="10" as="geometry"/>
                </mxCell>
                <mxCell id="237" value="" style="verticalLabelPosition=bottom;shadow=0;dashed=0;align=center;html=1;verticalAlign=top;shape=mxgraph.electrical.logic_gates.inverting_contact;fillColor=#000000;" parent="348" vertex="1">
                    <mxGeometry x="625" y="125" width="10" height="10" as="geometry"/>
                </mxCell>
                <mxCell id="445" value="" style="group" parent="1" vertex="1" connectable="0">
                    <mxGeometry x="120" y="1680" width="660" height="285" as="geometry"/>
                </mxCell>
                <mxCell id="395" value="" style="verticalLabelPosition=bottom;shadow=0;dashed=0;align=center;html=1;verticalAlign=top;shape=mxgraph.electrical.logic_gates.logic_gate;operation=xor;rotation=-180;" parent="445" vertex="1">
                    <mxGeometry x="200" width="100" height="60" as="geometry"/>
                </mxCell>
                <mxCell id="396" value="" style="endArrow=none;html=1;align=center;fontSize=30;" parent="445" edge="1">
                    <mxGeometry width="50" height="50" relative="1" as="geometry">
                        <mxPoint x="630" y="130" as="sourcePoint"/>
                        <mxPoint x="660" y="130" as="targetPoint"/>
                    </mxGeometry>
                </mxCell>
                <mxCell id="397" value="Takt" style="endArrow=none;html=1;align=center;fontSize=30;entryX=0;entryY=0.5;entryDx=0;entryDy=0;" parent="445" edge="1">
                    <mxGeometry x="-1" y="-40" width="50" height="50" relative="1" as="geometry">
                        <mxPoint y="279.9099999999996" as="sourcePoint"/>
                        <mxPoint x="30.00444444444429" y="279.9099999999996" as="targetPoint"/>
                        <mxPoint x="-40" y="-40" as="offset"/>
                    </mxGeometry>
                </mxCell>
                <mxCell id="398" value="" style="group" parent="445" vertex="1" connectable="0">
                    <mxGeometry x="30" y="90" width="150" height="150" as="geometry"/>
                </mxCell>
                <mxCell id="399" value="" style="rounded=0;whiteSpace=wrap;html=1;" parent="398" vertex="1">
                    <mxGeometry x="30" width="90" height="150" as="geometry"/>
                </mxCell>
                <mxCell id="400" value="" style="endArrow=none;html=1;align=center;fontSize=30;entryX=0;entryY=0.267;entryDx=0;entryDy=0;entryPerimeter=0;" parent="398" target="399" edge="1">
                    <mxGeometry width="50" height="50" relative="1" as="geometry">
                        <mxPoint y="40" as="sourcePoint"/>
                        <mxPoint x="20" y="40" as="targetPoint"/>
                    </mxGeometry>
                </mxCell>
                <mxCell id="401" value="D&lt;sub&gt;3&lt;/sub&gt;" style="edgeLabel;html=1;align=left;verticalAlign=middle;resizable=0;points=[];fontSize=30;" parent="400" vertex="1" connectable="0">
                    <mxGeometry x="0.28" relative="1" as="geometry">
                        <mxPoint x="11" as="offset"/>
                    </mxGeometry>
                </mxCell>
                <mxCell id="402" value="" style="endArrow=none;html=1;align=center;exitX=1;exitY=0.267;exitDx=0;exitDy=0;fontSize=30;exitPerimeter=0;" parent="398" source="399" edge="1">
                    <mxGeometry width="50" height="50" relative="1" as="geometry">
                        <mxPoint x="135.55555555555566" y="30" as="sourcePoint"/>
                        <mxPoint x="150" y="40" as="targetPoint"/>
                    </mxGeometry>
                </mxCell>
                <mxCell id="403" value="Q&lt;sub&gt;3&lt;br&gt;&lt;/sub&gt;" style="edgeLabel;html=1;align=right;verticalAlign=middle;resizable=0;points=[];fontSize=30;" parent="402" vertex="1" connectable="0">
                    <mxGeometry x="0.28" relative="1" as="geometry">
                        <mxPoint x="-19" as="offset"/>
                    </mxGeometry>
                </mxCell>
                <mxCell id="404" value="" style="endArrow=none;html=1;align=center;fontSize=30;entryX=0;entryY=0.5;entryDx=0;entryDy=0;" parent="398" target="405" edge="1">
                    <mxGeometry width="50" height="50" relative="1" as="geometry">
                        <mxPoint y="110" as="sourcePoint"/>
                        <mxPoint x="20" y="109.98000000000002" as="targetPoint"/>
                    </mxGeometry>
                </mxCell>
                <mxCell id="405" value="" style="triangle;whiteSpace=wrap;html=1;" parent="398" vertex="1">
                    <mxGeometry x="30.00444444444429" y="97.5" width="22.22222222222222" height="25" as="geometry"/>
                </mxCell>
                <mxCell id="406" value="" style="group" parent="445" vertex="1" connectable="0">
                    <mxGeometry x="180" y="90" width="150" height="150" as="geometry"/>
                </mxCell>
                <mxCell id="407" value="" style="rounded=0;whiteSpace=wrap;html=1;" parent="406" vertex="1">
                    <mxGeometry x="30" width="90" height="150" as="geometry"/>
                </mxCell>
                <mxCell id="408" value="" style="endArrow=none;html=1;align=center;fontSize=30;entryX=0;entryY=0.267;entryDx=0;entryDy=0;entryPerimeter=0;" parent="406" target="407" edge="1">
                    <mxGeometry width="50" height="50" relative="1" as="geometry">
                        <mxPoint y="40" as="sourcePoint"/>
                        <mxPoint x="20" y="40" as="targetPoint"/>
                    </mxGeometry>
                </mxCell>
                <mxCell id="409" value="D&lt;sub&gt;2&lt;/sub&gt;" style="edgeLabel;html=1;align=left;verticalAlign=middle;resizable=0;points=[];fontSize=30;" parent="408" vertex="1" connectable="0">
                    <mxGeometry x="0.28" relative="1" as="geometry">
                        <mxPoint x="11" as="offset"/>
                    </mxGeometry>
                </mxCell>
                <mxCell id="410" value="" style="endArrow=none;html=1;align=center;exitX=1;exitY=0.267;exitDx=0;exitDy=0;fontSize=30;exitPerimeter=0;" parent="406" source="407" edge="1">
                    <mxGeometry width="50" height="50" relative="1" as="geometry">
                        <mxPoint x="135.55555555555566" y="30" as="sourcePoint"/>
                        <mxPoint x="150" y="40" as="targetPoint"/>
                    </mxGeometry>
                </mxCell>
                <mxCell id="411" value="Q&lt;sub&gt;2&lt;/sub&gt;" style="edgeLabel;html=1;align=right;verticalAlign=middle;resizable=0;points=[];fontSize=30;" parent="410" vertex="1" connectable="0">
                    <mxGeometry x="0.28" relative="1" as="geometry">
                        <mxPoint x="-19" as="offset"/>
                    </mxGeometry>
                </mxCell>
                <mxCell id="412" value="" style="endArrow=none;html=1;align=center;fontSize=30;entryX=0;entryY=0.5;entryDx=0;entryDy=0;" parent="406" target="413" edge="1">
                    <mxGeometry width="50" height="50" relative="1" as="geometry">
                        <mxPoint y="110" as="sourcePoint"/>
                        <mxPoint x="20" y="109.98000000000002" as="targetPoint"/>
                    </mxGeometry>
                </mxCell>
                <mxCell id="413" value="" style="triangle;whiteSpace=wrap;html=1;" parent="406" vertex="1">
                    <mxGeometry x="30.00444444444429" y="97.5" width="22.22222222222222" height="25" as="geometry"/>
                </mxCell>
                <mxCell id="414" value="" style="group" parent="445" vertex="1" connectable="0">
                    <mxGeometry x="330" y="90" width="150" height="150" as="geometry"/>
                </mxCell>
                <mxCell id="415" value="" style="rounded=0;whiteSpace=wrap;html=1;" parent="414" vertex="1">
                    <mxGeometry x="30" width="90" height="150" as="geometry"/>
                </mxCell>
                <mxCell id="416" value="" style="endArrow=none;html=1;align=center;fontSize=30;entryX=0;entryY=0.267;entryDx=0;entryDy=0;entryPerimeter=0;" parent="414" target="415" edge="1">
                    <mxGeometry width="50" height="50" relative="1" as="geometry">
                        <mxPoint y="40" as="sourcePoint"/>
                        <mxPoint x="20" y="40" as="targetPoint"/>
                    </mxGeometry>
                </mxCell>
                <mxCell id="417" value="D&lt;sub&gt;1&lt;/sub&gt;" style="edgeLabel;html=1;align=left;verticalAlign=middle;resizable=0;points=[];fontSize=30;" parent="416" vertex="1" connectable="0">
                    <mxGeometry x="0.28" relative="1" as="geometry">
                        <mxPoint x="11" as="offset"/>
                    </mxGeometry>
                </mxCell>
                <mxCell id="418" value="" style="endArrow=none;html=1;align=center;exitX=1;exitY=0.267;exitDx=0;exitDy=0;fontSize=30;exitPerimeter=0;" parent="414" source="415" edge="1">
                    <mxGeometry width="50" height="50" relative="1" as="geometry">
                        <mxPoint x="135.55555555555566" y="30" as="sourcePoint"/>
                        <mxPoint x="150" y="40" as="targetPoint"/>
                    </mxGeometry>
                </mxCell>
                <mxCell id="419" value="Q&lt;sub&gt;1&lt;/sub&gt;" style="edgeLabel;html=1;align=right;verticalAlign=middle;resizable=0;points=[];fontSize=30;" parent="418" vertex="1" connectable="0">
                    <mxGeometry x="0.28" relative="1" as="geometry">
                        <mxPoint x="-19" as="offset"/>
                    </mxGeometry>
                </mxCell>
                <mxCell id="420" value="" style="endArrow=none;html=1;align=center;fontSize=30;entryX=0;entryY=0.5;entryDx=0;entryDy=0;" parent="414" target="421" edge="1">
                    <mxGeometry width="50" height="50" relative="1" as="geometry">
                        <mxPoint y="110" as="sourcePoint"/>
                        <mxPoint x="20" y="109.98000000000002" as="targetPoint"/>
                    </mxGeometry>
                </mxCell>
                <mxCell id="421" value="" style="triangle;whiteSpace=wrap;html=1;" parent="414" vertex="1">
                    <mxGeometry x="30.00444444444429" y="97.5" width="22.22222222222222" height="25" as="geometry"/>
                </mxCell>
                <mxCell id="422" value="" style="group" parent="445" vertex="1" connectable="0">
                    <mxGeometry x="480" y="90" width="150" height="150" as="geometry"/>
                </mxCell>
                <mxCell id="423" value="" style="rounded=0;whiteSpace=wrap;html=1;" parent="422" vertex="1">
                    <mxGeometry x="30" width="90" height="150" as="geometry"/>
                </mxCell>
                <mxCell id="424" value="" style="endArrow=none;html=1;align=center;fontSize=30;entryX=0;entryY=0.267;entryDx=0;entryDy=0;entryPerimeter=0;" parent="422" target="423" edge="1">
                    <mxGeometry width="50" height="50" relative="1" as="geometry">
                        <mxPoint y="40" as="sourcePoint"/>
                        <mxPoint x="20" y="40" as="targetPoint"/>
                    </mxGeometry>
                </mxCell>
                <mxCell id="425" value="D&lt;sub&gt;0&lt;/sub&gt;" style="edgeLabel;html=1;align=left;verticalAlign=middle;resizable=0;points=[];fontSize=30;" parent="424" vertex="1" connectable="0">
                    <mxGeometry x="0.28" relative="1" as="geometry">
                        <mxPoint x="11" as="offset"/>
                    </mxGeometry>
                </mxCell>
                <mxCell id="426" value="" style="endArrow=none;html=1;align=center;exitX=1;exitY=0.267;exitDx=0;exitDy=0;fontSize=30;exitPerimeter=0;" parent="422" source="423" edge="1">
                    <mxGeometry width="50" height="50" relative="1" as="geometry">
                        <mxPoint x="135.55555555555566" y="30" as="sourcePoint"/>
                        <mxPoint x="150" y="40" as="targetPoint"/>
                    </mxGeometry>
                </mxCell>
                <mxCell id="427" value="Q&lt;sub&gt;0&lt;/sub&gt;" style="edgeLabel;html=1;align=right;verticalAlign=middle;resizable=0;points=[];fontSize=30;" parent="426" vertex="1" connectable="0">
                    <mxGeometry x="0.28" relative="1" as="geometry">
                        <mxPoint x="-19" as="offset"/>
                    </mxGeometry>
                </mxCell>
                <mxCell id="428" value="" style="endArrow=none;html=1;align=center;fontSize=30;entryX=0;entryY=0.5;entryDx=0;entryDy=0;" parent="422" target="429" edge="1">
                    <mxGeometry width="50" height="50" relative="1" as="geometry">
                        <mxPoint y="110" as="sourcePoint"/>
                        <mxPoint x="20" y="109.98000000000002" as="targetPoint"/>
                    </mxGeometry>
                </mxCell>
                <mxCell id="429" value="" style="triangle;whiteSpace=wrap;html=1;" parent="422" vertex="1">
                    <mxGeometry x="30.00444444444429" y="97.5" width="22.22222222222222" height="25" as="geometry"/>
                </mxCell>
                <mxCell id="430" value="" style="endArrow=none;html=1;align=center;fontSize=30;" parent="445" edge="1">
                    <mxGeometry width="50" height="50" relative="1" as="geometry">
                        <mxPoint x="30" y="279.9999999999998" as="sourcePoint"/>
                        <mxPoint x="30" y="199.99999999999977" as="targetPoint"/>
                    </mxGeometry>
                </mxCell>
                <mxCell id="431" value="" style="endArrow=none;html=1;align=center;fontSize=30;" parent="445" edge="1">
                    <mxGeometry width="50" height="50" relative="1" as="geometry">
                        <mxPoint x="180" y="279.9999999999998" as="sourcePoint"/>
                        <mxPoint x="180" y="199.99999999999977" as="targetPoint"/>
                    </mxGeometry>
                </mxCell>
                <mxCell id="432" value="" style="endArrow=none;html=1;align=center;fontSize=30;" parent="445" edge="1">
                    <mxGeometry width="50" height="50" relative="1" as="geometry">
                        <mxPoint x="330" y="279.9999999999998" as="sourcePoint"/>
                        <mxPoint x="330" y="199.99999999999977" as="targetPoint"/>
                    </mxGeometry>
                </mxCell>
                <mxCell id="433" value="" style="endArrow=none;html=1;align=center;fontSize=30;" parent="445" edge="1">
                    <mxGeometry width="50" height="50" relative="1" as="geometry">
                        <mxPoint x="479.52" y="279.9999999999998" as="sourcePoint"/>
                        <mxPoint x="479.52" y="199.99999999999977" as="targetPoint"/>
                    </mxGeometry>
                </mxCell>
                <mxCell id="434" value="" style="endArrow=none;html=1;align=center;fontSize=30;exitX=0.9;exitY=0.5;exitDx=0;exitDy=0;exitPerimeter=0;" parent="445" source="436" edge="1">
                    <mxGeometry width="50" height="50" relative="1" as="geometry">
                        <mxPoint y="280" as="sourcePoint"/>
                        <mxPoint x="480" y="279.9999999999998" as="targetPoint"/>
                    </mxGeometry>
                </mxCell>
                <mxCell id="435" value="" style="verticalLabelPosition=bottom;shadow=0;dashed=0;align=center;html=1;verticalAlign=top;shape=mxgraph.electrical.logic_gates.inverting_contact;fillColor=#000000;" parent="445" vertex="1">
                    <mxGeometry x="175" y="275" width="10" height="10" as="geometry"/>
                </mxCell>
                <mxCell id="436" value="" style="verticalLabelPosition=bottom;shadow=0;dashed=0;align=center;html=1;verticalAlign=top;shape=mxgraph.electrical.logic_gates.inverting_contact;fillColor=#000000;" parent="445" vertex="1">
                    <mxGeometry x="25" y="275" width="10" height="10" as="geometry"/>
                </mxCell>
                <mxCell id="437" value="" style="verticalLabelPosition=bottom;shadow=0;dashed=0;align=center;html=1;verticalAlign=top;shape=mxgraph.electrical.logic_gates.inverting_contact;fillColor=#000000;" parent="445" vertex="1">
                    <mxGeometry x="325" y="275" width="10" height="10" as="geometry"/>
                </mxCell>
                <mxCell id="438" style="edgeStyle=orthogonalEdgeStyle;html=1;endArrow=none;endFill=0;rounded=0;exitX=1;exitY=0.5;exitDx=0;exitDy=0;exitPerimeter=0;" parent="445" source="395" edge="1">
                    <mxGeometry relative="1" as="geometry">
                        <mxPoint x="30" y="130" as="targetPoint"/>
                        <mxPoint x="330" y="30" as="sourcePoint"/>
                    </mxGeometry>
                </mxCell>
                <mxCell id="439" value="" style="endArrow=none;html=1;align=center;fontSize=30;" parent="445" edge="1">
                    <mxGeometry width="50" height="50" relative="1" as="geometry">
                        <mxPoint x="630" y="130" as="sourcePoint"/>
                        <mxPoint x="630" y="15" as="targetPoint"/>
                    </mxGeometry>
                </mxCell>
                <mxCell id="440" value="" style="endArrow=none;html=1;align=center;fontSize=30;" parent="445" edge="1">
                    <mxGeometry width="50" height="50" relative="1" as="geometry">
                        <mxPoint x="330" y="129.99999999999977" as="sourcePoint"/>
                        <mxPoint x="330" y="45" as="targetPoint"/>
                    </mxGeometry>
                </mxCell>
                <mxCell id="441" value="" style="endArrow=none;html=1;align=center;fontSize=30;entryX=0;entryY=0.25;entryDx=0;entryDy=0;entryPerimeter=0;" parent="445" target="395" edge="1">
                    <mxGeometry width="50" height="50" relative="1" as="geometry">
                        <mxPoint x="330" y="45" as="sourcePoint"/>
                        <mxPoint x="455" y="45" as="targetPoint"/>
                    </mxGeometry>
                </mxCell>
                <mxCell id="442" value="" style="endArrow=none;html=1;align=center;fontSize=30;entryX=0;entryY=0.75;entryDx=0;entryDy=0;entryPerimeter=0;" parent="445" target="395" edge="1">
                    <mxGeometry width="50" height="50" relative="1" as="geometry">
                        <mxPoint x="630" y="15" as="sourcePoint"/>
                        <mxPoint x="455" y="15" as="targetPoint"/>
                    </mxGeometry>
                </mxCell>
                <mxCell id="443" value="" style="verticalLabelPosition=bottom;shadow=0;dashed=0;align=center;html=1;verticalAlign=top;shape=mxgraph.electrical.logic_gates.inverting_contact;fillColor=#000000;" parent="445" vertex="1">
                    <mxGeometry x="325" y="125" width="10" height="10" as="geometry"/>
                </mxCell>
                <mxCell id="444" value="" style="verticalLabelPosition=bottom;shadow=0;dashed=0;align=center;html=1;verticalAlign=top;shape=mxgraph.electrical.logic_gates.inverting_contact;fillColor=#000000;" parent="445" vertex="1">
                    <mxGeometry x="625" y="125" width="10" height="10" as="geometry"/>
                </mxCell>
                <mxCell id="446" value="" style="group" parent="1" vertex="1" connectable="0">
                    <mxGeometry x="120" y="1340" width="630" height="255" as="geometry"/>
                </mxCell>
                <mxCell id="391" style="edgeStyle=orthogonalEdgeStyle;html=1;endArrow=none;endFill=0;rounded=0;" parent="446" edge="1">
                    <mxGeometry relative="1" as="geometry">
                        <mxPoint x="30" y="100" as="targetPoint"/>
                        <mxPoint x="630" as="sourcePoint"/>
                    </mxGeometry>
                </mxCell>
                <mxCell id="350" value="Takt" style="endArrow=none;html=1;align=center;fontSize=30;entryX=0;entryY=0.5;entryDx=0;entryDy=0;" parent="446" edge="1">
                    <mxGeometry x="-1" y="-40" width="50" height="50" relative="1" as="geometry">
                        <mxPoint y="249.90999999999985" as="sourcePoint"/>
                        <mxPoint x="30.00444444444429" y="249.90999999999985" as="targetPoint"/>
                        <mxPoint x="-40" y="-40" as="offset"/>
                    </mxGeometry>
                </mxCell>
                <mxCell id="351" value="" style="group" parent="446" vertex="1" connectable="0">
                    <mxGeometry x="30" y="60" width="150" height="150" as="geometry"/>
                </mxCell>
                <mxCell id="352" value="" style="rounded=0;whiteSpace=wrap;html=1;" parent="351" vertex="1">
                    <mxGeometry x="30" width="90" height="150" as="geometry"/>
                </mxCell>
                <mxCell id="353" value="" style="endArrow=none;html=1;align=center;fontSize=30;entryX=0;entryY=0.267;entryDx=0;entryDy=0;entryPerimeter=0;" parent="351" target="352" edge="1">
                    <mxGeometry width="50" height="50" relative="1" as="geometry">
                        <mxPoint y="40" as="sourcePoint"/>
                        <mxPoint x="20" y="40" as="targetPoint"/>
                    </mxGeometry>
                </mxCell>
                <mxCell id="354" value="D&lt;sub&gt;3&lt;/sub&gt;" style="edgeLabel;html=1;align=left;verticalAlign=middle;resizable=0;points=[];fontSize=30;" parent="353" vertex="1" connectable="0">
                    <mxGeometry x="0.28" relative="1" as="geometry">
                        <mxPoint x="11" as="offset"/>
                    </mxGeometry>
                </mxCell>
                <mxCell id="355" value="" style="endArrow=none;html=1;align=center;exitX=1;exitY=0.267;exitDx=0;exitDy=0;fontSize=30;exitPerimeter=0;" parent="351" source="352" edge="1">
                    <mxGeometry width="50" height="50" relative="1" as="geometry">
                        <mxPoint x="135.55555555555566" y="30" as="sourcePoint"/>
                        <mxPoint x="150" y="40" as="targetPoint"/>
                    </mxGeometry>
                </mxCell>
                <mxCell id="356" value="Q&lt;sub&gt;3&lt;br&gt;&lt;/sub&gt;" style="edgeLabel;html=1;align=right;verticalAlign=middle;resizable=0;points=[];fontSize=30;" parent="355" vertex="1" connectable="0">
                    <mxGeometry x="0.28" relative="1" as="geometry">
                        <mxPoint x="-19" as="offset"/>
                    </mxGeometry>
                </mxCell>
                <mxCell id="357" value="" style="endArrow=none;html=1;align=center;fontSize=30;entryX=0;entryY=0.5;entryDx=0;entryDy=0;" parent="351" target="358" edge="1">
                    <mxGeometry width="50" height="50" relative="1" as="geometry">
                        <mxPoint y="110" as="sourcePoint"/>
                        <mxPoint x="20" y="109.98000000000002" as="targetPoint"/>
                    </mxGeometry>
                </mxCell>
                <mxCell id="358" value="" style="triangle;whiteSpace=wrap;html=1;" parent="351" vertex="1">
                    <mxGeometry x="30.00444444444429" y="97.5" width="22.22222222222222" height="25" as="geometry"/>
                </mxCell>
                <mxCell id="359" value="" style="group" parent="446" vertex="1" connectable="0">
                    <mxGeometry x="180" y="60" width="150" height="150" as="geometry"/>
                </mxCell>
                <mxCell id="360" value="" style="rounded=0;whiteSpace=wrap;html=1;" parent="359" vertex="1">
                    <mxGeometry x="30" width="90" height="150" as="geometry"/>
                </mxCell>
                <mxCell id="361" value="" style="endArrow=none;html=1;align=center;fontSize=30;entryX=0;entryY=0.267;entryDx=0;entryDy=0;entryPerimeter=0;" parent="359" target="360" edge="1">
                    <mxGeometry width="50" height="50" relative="1" as="geometry">
                        <mxPoint y="40" as="sourcePoint"/>
                        <mxPoint x="20" y="40" as="targetPoint"/>
                    </mxGeometry>
                </mxCell>
                <mxCell id="362" value="D&lt;sub&gt;2&lt;/sub&gt;" style="edgeLabel;html=1;align=left;verticalAlign=middle;resizable=0;points=[];fontSize=30;" parent="361" vertex="1" connectable="0">
                    <mxGeometry x="0.28" relative="1" as="geometry">
                        <mxPoint x="11" as="offset"/>
                    </mxGeometry>
                </mxCell>
                <mxCell id="363" value="" style="endArrow=none;html=1;align=center;exitX=1;exitY=0.267;exitDx=0;exitDy=0;fontSize=30;exitPerimeter=0;" parent="359" source="360" edge="1">
                    <mxGeometry width="50" height="50" relative="1" as="geometry">
                        <mxPoint x="135.55555555555566" y="30" as="sourcePoint"/>
                        <mxPoint x="150" y="40" as="targetPoint"/>
                    </mxGeometry>
                </mxCell>
                <mxCell id="364" value="Q&lt;sub&gt;2&lt;/sub&gt;" style="edgeLabel;html=1;align=right;verticalAlign=middle;resizable=0;points=[];fontSize=30;" parent="363" vertex="1" connectable="0">
                    <mxGeometry x="0.28" relative="1" as="geometry">
                        <mxPoint x="-19" as="offset"/>
                    </mxGeometry>
                </mxCell>
                <mxCell id="365" value="" style="endArrow=none;html=1;align=center;fontSize=30;entryX=0;entryY=0.5;entryDx=0;entryDy=0;" parent="359" target="366" edge="1">
                    <mxGeometry width="50" height="50" relative="1" as="geometry">
                        <mxPoint y="110" as="sourcePoint"/>
                        <mxPoint x="20" y="109.98000000000002" as="targetPoint"/>
                    </mxGeometry>
                </mxCell>
                <mxCell id="366" value="" style="triangle;whiteSpace=wrap;html=1;" parent="359" vertex="1">
                    <mxGeometry x="30.00444444444429" y="97.5" width="22.22222222222222" height="25" as="geometry"/>
                </mxCell>
                <mxCell id="367" value="" style="group" parent="446" vertex="1" connectable="0">
                    <mxGeometry x="330" y="60" width="150" height="150" as="geometry"/>
                </mxCell>
                <mxCell id="368" value="" style="rounded=0;whiteSpace=wrap;html=1;" parent="367" vertex="1">
                    <mxGeometry x="30" width="90" height="150" as="geometry"/>
                </mxCell>
                <mxCell id="369" value="" style="endArrow=none;html=1;align=center;fontSize=30;entryX=0;entryY=0.267;entryDx=0;entryDy=0;entryPerimeter=0;" parent="367" target="368" edge="1">
                    <mxGeometry width="50" height="50" relative="1" as="geometry">
                        <mxPoint y="40" as="sourcePoint"/>
                        <mxPoint x="20" y="40" as="targetPoint"/>
                    </mxGeometry>
                </mxCell>
                <mxCell id="370" value="D&lt;sub&gt;1&lt;/sub&gt;" style="edgeLabel;html=1;align=left;verticalAlign=middle;resizable=0;points=[];fontSize=30;" parent="369" vertex="1" connectable="0">
                    <mxGeometry x="0.28" relative="1" as="geometry">
                        <mxPoint x="11" as="offset"/>
                    </mxGeometry>
                </mxCell>
                <mxCell id="371" value="" style="endArrow=none;html=1;align=center;exitX=1;exitY=0.267;exitDx=0;exitDy=0;fontSize=30;exitPerimeter=0;" parent="367" source="368" edge="1">
                    <mxGeometry width="50" height="50" relative="1" as="geometry">
                        <mxPoint x="135.55555555555566" y="30" as="sourcePoint"/>
                        <mxPoint x="150" y="40" as="targetPoint"/>
                    </mxGeometry>
                </mxCell>
                <mxCell id="372" value="Q&lt;sub&gt;1&lt;/sub&gt;" style="edgeLabel;html=1;align=right;verticalAlign=middle;resizable=0;points=[];fontSize=30;" parent="371" vertex="1" connectable="0">
                    <mxGeometry x="0.28" relative="1" as="geometry">
                        <mxPoint x="-19" as="offset"/>
                    </mxGeometry>
                </mxCell>
                <mxCell id="373" value="" style="endArrow=none;html=1;align=center;fontSize=30;entryX=0;entryY=0.5;entryDx=0;entryDy=0;" parent="367" target="374" edge="1">
                    <mxGeometry width="50" height="50" relative="1" as="geometry">
                        <mxPoint y="110" as="sourcePoint"/>
                        <mxPoint x="20" y="109.98000000000002" as="targetPoint"/>
                    </mxGeometry>
                </mxCell>
                <mxCell id="374" value="" style="triangle;whiteSpace=wrap;html=1;" parent="367" vertex="1">
                    <mxGeometry x="30.00444444444429" y="97.5" width="22.22222222222222" height="25" as="geometry"/>
                </mxCell>
                <mxCell id="375" value="" style="group" parent="446" vertex="1" connectable="0">
                    <mxGeometry x="480" y="60" width="150" height="150" as="geometry"/>
                </mxCell>
                <mxCell id="376" value="" style="rounded=0;whiteSpace=wrap;html=1;" parent="375" vertex="1">
                    <mxGeometry x="30" width="90" height="150" as="geometry"/>
                </mxCell>
                <mxCell id="377" value="" style="endArrow=none;html=1;align=center;fontSize=30;entryX=0;entryY=0.267;entryDx=0;entryDy=0;entryPerimeter=0;" parent="375" target="376" edge="1">
                    <mxGeometry width="50" height="50" relative="1" as="geometry">
                        <mxPoint y="40" as="sourcePoint"/>
                        <mxPoint x="20" y="40" as="targetPoint"/>
                    </mxGeometry>
                </mxCell>
                <mxCell id="378" value="D&lt;sub&gt;0&lt;/sub&gt;" style="edgeLabel;html=1;align=left;verticalAlign=middle;resizable=0;points=[];fontSize=30;" parent="377" vertex="1" connectable="0">
                    <mxGeometry x="0.28" relative="1" as="geometry">
                        <mxPoint x="11" as="offset"/>
                    </mxGeometry>
                </mxCell>
                <mxCell id="379" value="" style="endArrow=none;html=1;align=center;exitX=1;exitY=0.267;exitDx=0;exitDy=0;fontSize=30;exitPerimeter=0;" parent="375" source="376" edge="1">
                    <mxGeometry width="50" height="50" relative="1" as="geometry">
                        <mxPoint x="135.55555555555566" y="30" as="sourcePoint"/>
                        <mxPoint x="150" y="40" as="targetPoint"/>
                    </mxGeometry>
                </mxCell>
                <mxCell id="380" value="Q&lt;sub&gt;0&lt;/sub&gt;" style="edgeLabel;html=1;align=right;verticalAlign=middle;resizable=0;points=[];fontSize=30;" parent="379" vertex="1" connectable="0">
                    <mxGeometry x="0.28" relative="1" as="geometry">
                        <mxPoint x="-19" as="offset"/>
                    </mxGeometry>
                </mxCell>
                <mxCell id="381" value="" style="endArrow=none;html=1;align=center;fontSize=30;entryX=0;entryY=0.5;entryDx=0;entryDy=0;" parent="375" target="382" edge="1">
                    <mxGeometry width="50" height="50" relative="1" as="geometry">
                        <mxPoint y="110" as="sourcePoint"/>
                        <mxPoint x="20" y="109.98000000000002" as="targetPoint"/>
                    </mxGeometry>
                </mxCell>
                <mxCell id="382" value="" style="triangle;whiteSpace=wrap;html=1;" parent="375" vertex="1">
                    <mxGeometry x="30.00444444444429" y="97.5" width="22.22222222222222" height="25" as="geometry"/>
                </mxCell>
                <mxCell id="383" value="" style="endArrow=none;html=1;align=center;fontSize=30;" parent="446" edge="1">
                    <mxGeometry width="50" height="50" relative="1" as="geometry">
                        <mxPoint x="30" y="250" as="sourcePoint"/>
                        <mxPoint x="30" y="170" as="targetPoint"/>
                    </mxGeometry>
                </mxCell>
                <mxCell id="384" value="" style="endArrow=none;html=1;align=center;fontSize=30;" parent="446" edge="1">
                    <mxGeometry width="50" height="50" relative="1" as="geometry">
                        <mxPoint x="180" y="250" as="sourcePoint"/>
                        <mxPoint x="180" y="170" as="targetPoint"/>
                    </mxGeometry>
                </mxCell>
                <mxCell id="385" value="" style="endArrow=none;html=1;align=center;fontSize=30;" parent="446" edge="1">
                    <mxGeometry width="50" height="50" relative="1" as="geometry">
                        <mxPoint x="330" y="250" as="sourcePoint"/>
                        <mxPoint x="330" y="170" as="targetPoint"/>
                    </mxGeometry>
                </mxCell>
                <mxCell id="386" value="" style="endArrow=none;html=1;align=center;fontSize=30;" parent="446" edge="1">
                    <mxGeometry width="50" height="50" relative="1" as="geometry">
                        <mxPoint x="479.52" y="250" as="sourcePoint"/>
                        <mxPoint x="479.52" y="170" as="targetPoint"/>
                    </mxGeometry>
                </mxCell>
                <mxCell id="387" value="" style="endArrow=none;html=1;align=center;fontSize=30;exitX=0.9;exitY=0.5;exitDx=0;exitDy=0;exitPerimeter=0;" parent="446" source="389" edge="1">
                    <mxGeometry width="50" height="50" relative="1" as="geometry">
                        <mxPoint y="250" as="sourcePoint"/>
                        <mxPoint x="480" y="250" as="targetPoint"/>
                    </mxGeometry>
                </mxCell>
                <mxCell id="388" value="" style="verticalLabelPosition=bottom;shadow=0;dashed=0;align=center;html=1;verticalAlign=top;shape=mxgraph.electrical.logic_gates.inverting_contact;fillColor=#000000;" parent="446" vertex="1">
                    <mxGeometry x="175" y="245" width="10" height="10" as="geometry"/>
                </mxCell>
                <mxCell id="389" value="" style="verticalLabelPosition=bottom;shadow=0;dashed=0;align=center;html=1;verticalAlign=top;shape=mxgraph.electrical.logic_gates.inverting_contact;fillColor=#000000;" parent="446" vertex="1">
                    <mxGeometry x="25" y="245" width="10" height="10" as="geometry"/>
                </mxCell>
                <mxCell id="390" value="" style="verticalLabelPosition=bottom;shadow=0;dashed=0;align=center;html=1;verticalAlign=top;shape=mxgraph.electrical.logic_gates.inverting_contact;fillColor=#000000;" parent="446" vertex="1">
                    <mxGeometry x="325" y="245" width="10" height="10" as="geometry"/>
                </mxCell>
                <mxCell id="393" value="" style="endArrow=none;html=1;align=center;fontSize=30;" parent="446" edge="1">
                    <mxGeometry width="50" height="50" relative="1" as="geometry">
                        <mxPoint x="630" y="100" as="sourcePoint"/>
                        <mxPoint x="630" as="targetPoint"/>
                    </mxGeometry>
                </mxCell>
                <mxCell id="559" value="" style="group" parent="1" vertex="1" connectable="0">
                    <mxGeometry x="120" y="2760" width="660" height="315" as="geometry"/>
                </mxCell>
                <mxCell id="550" value="" style="verticalLabelPosition=bottom;shadow=0;dashed=0;align=center;html=1;verticalAlign=top;shape=mxgraph.electrical.logic_gates.logic_gate;operation=xor;rotation=-180;" parent="559" vertex="1">
                    <mxGeometry x="355" width="100" height="60" as="geometry"/>
                </mxCell>
                <mxCell id="500" value="" style="endArrow=none;html=1;align=center;fontSize=30;" parent="559" edge="1">
                    <mxGeometry width="50" height="50" relative="1" as="geometry">
                        <mxPoint x="630" y="160" as="sourcePoint"/>
                        <mxPoint x="660" y="160" as="targetPoint"/>
                    </mxGeometry>
                </mxCell>
                <mxCell id="501" value="Takt" style="endArrow=none;html=1;align=center;fontSize=30;entryX=0;entryY=0.5;entryDx=0;entryDy=0;" parent="559" edge="1">
                    <mxGeometry x="-1" y="-40" width="50" height="50" relative="1" as="geometry">
                        <mxPoint y="309.90999999999985" as="sourcePoint"/>
                        <mxPoint x="30.00444444444429" y="309.90999999999985" as="targetPoint"/>
                        <mxPoint x="-40" y="-40" as="offset"/>
                    </mxGeometry>
                </mxCell>
                <mxCell id="502" value="" style="group" parent="559" vertex="1" connectable="0">
                    <mxGeometry x="30" y="120" width="150" height="150" as="geometry"/>
                </mxCell>
                <mxCell id="503" value="" style="rounded=0;whiteSpace=wrap;html=1;" parent="502" vertex="1">
                    <mxGeometry x="30" width="90" height="150" as="geometry"/>
                </mxCell>
                <mxCell id="504" value="" style="endArrow=none;html=1;align=center;fontSize=30;entryX=0;entryY=0.267;entryDx=0;entryDy=0;entryPerimeter=0;" parent="502" target="503" edge="1">
                    <mxGeometry width="50" height="50" relative="1" as="geometry">
                        <mxPoint y="40" as="sourcePoint"/>
                        <mxPoint x="20" y="40" as="targetPoint"/>
                    </mxGeometry>
                </mxCell>
                <mxCell id="505" value="D&lt;sub&gt;3&lt;/sub&gt;" style="edgeLabel;html=1;align=left;verticalAlign=middle;resizable=0;points=[];fontSize=30;" parent="504" vertex="1" connectable="0">
                    <mxGeometry x="0.28" relative="1" as="geometry">
                        <mxPoint x="11" as="offset"/>
                    </mxGeometry>
                </mxCell>
                <mxCell id="506" value="" style="endArrow=none;html=1;align=center;exitX=1;exitY=0.267;exitDx=0;exitDy=0;fontSize=30;exitPerimeter=0;" parent="502" source="503" edge="1">
                    <mxGeometry width="50" height="50" relative="1" as="geometry">
                        <mxPoint x="135.55555555555566" y="30" as="sourcePoint"/>
                        <mxPoint x="150" y="40" as="targetPoint"/>
                    </mxGeometry>
                </mxCell>
                <mxCell id="507" value="Q&lt;sub&gt;3&lt;br&gt;&lt;/sub&gt;" style="edgeLabel;html=1;align=center;verticalAlign=middle;resizable=0;points=[];fontSize=30;" parent="506" vertex="1" connectable="0">
                    <mxGeometry x="0.28" relative="1" as="geometry">
                        <mxPoint x="-39" as="offset"/>
                    </mxGeometry>
                </mxCell>
                <mxCell id="688" value="Q&lt;sub&gt;3&lt;br&gt;&lt;/sub&gt;" style="edgeLabel;html=1;align=right;verticalAlign=middle;resizable=0;points=[];fontSize=30;" vertex="1" connectable="0" parent="506">
                    <mxGeometry x="0.28" relative="1" as="geometry">
                        <mxPoint x="-19" as="offset"/>
                    </mxGeometry>
                </mxCell>
                <mxCell id="508" value="" style="endArrow=none;html=1;align=center;fontSize=30;entryX=0;entryY=0.5;entryDx=0;entryDy=0;" parent="502" target="509" edge="1">
                    <mxGeometry width="50" height="50" relative="1" as="geometry">
                        <mxPoint y="110" as="sourcePoint"/>
                        <mxPoint x="20" y="109.98000000000002" as="targetPoint"/>
                    </mxGeometry>
                </mxCell>
                <mxCell id="509" value="" style="triangle;whiteSpace=wrap;html=1;" parent="502" vertex="1">
                    <mxGeometry x="30.00444444444429" y="97.5" width="22.22222222222222" height="25" as="geometry"/>
                </mxCell>
                <mxCell id="510" value="" style="group" parent="559" vertex="1" connectable="0">
                    <mxGeometry x="180" y="120" width="150" height="150" as="geometry"/>
                </mxCell>
                <mxCell id="511" value="" style="rounded=0;whiteSpace=wrap;html=1;" parent="510" vertex="1">
                    <mxGeometry x="30" width="90" height="150" as="geometry"/>
                </mxCell>
                <mxCell id="512" value="" style="endArrow=none;html=1;align=center;fontSize=30;entryX=0;entryY=0.267;entryDx=0;entryDy=0;entryPerimeter=0;" parent="510" target="511" edge="1">
                    <mxGeometry width="50" height="50" relative="1" as="geometry">
                        <mxPoint y="40" as="sourcePoint"/>
                        <mxPoint x="20" y="40" as="targetPoint"/>
                    </mxGeometry>
                </mxCell>
                <mxCell id="513" value="D&lt;sub&gt;2&lt;/sub&gt;" style="edgeLabel;html=1;align=left;verticalAlign=middle;resizable=0;points=[];fontSize=30;" parent="512" vertex="1" connectable="0">
                    <mxGeometry x="0.28" relative="1" as="geometry">
                        <mxPoint x="11" as="offset"/>
                    </mxGeometry>
                </mxCell>
                <mxCell id="514" value="" style="endArrow=none;html=1;align=center;exitX=1;exitY=0.267;exitDx=0;exitDy=0;fontSize=30;exitPerimeter=0;" parent="510" source="511" edge="1">
                    <mxGeometry width="50" height="50" relative="1" as="geometry">
                        <mxPoint x="135.55555555555566" y="30" as="sourcePoint"/>
                        <mxPoint x="150" y="40" as="targetPoint"/>
                    </mxGeometry>
                </mxCell>
                <mxCell id="515" value="Q&lt;sub&gt;2&lt;/sub&gt;" style="edgeLabel;html=1;align=center;verticalAlign=middle;resizable=0;points=[];fontSize=30;" parent="514" vertex="1" connectable="0">
                    <mxGeometry x="0.28" relative="1" as="geometry">
                        <mxPoint x="-39" as="offset"/>
                    </mxGeometry>
                </mxCell>
                <mxCell id="689" value="Q&lt;sub&gt;2&lt;/sub&gt;" style="edgeLabel;html=1;align=right;verticalAlign=middle;resizable=0;points=[];fontSize=30;" vertex="1" connectable="0" parent="514">
                    <mxGeometry x="0.28" relative="1" as="geometry">
                        <mxPoint x="-19" as="offset"/>
                    </mxGeometry>
                </mxCell>
                <mxCell id="516" value="" style="endArrow=none;html=1;align=center;fontSize=30;entryX=0;entryY=0.5;entryDx=0;entryDy=0;" parent="510" target="517" edge="1">
                    <mxGeometry width="50" height="50" relative="1" as="geometry">
                        <mxPoint y="110" as="sourcePoint"/>
                        <mxPoint x="20" y="109.98000000000002" as="targetPoint"/>
                    </mxGeometry>
                </mxCell>
                <mxCell id="517" value="" style="triangle;whiteSpace=wrap;html=1;" parent="510" vertex="1">
                    <mxGeometry x="30.00444444444429" y="97.5" width="22.22222222222222" height="25" as="geometry"/>
                </mxCell>
                <mxCell id="518" value="" style="group" parent="559" vertex="1" connectable="0">
                    <mxGeometry x="330" y="120" width="150" height="150" as="geometry"/>
                </mxCell>
                <mxCell id="519" value="" style="rounded=0;whiteSpace=wrap;html=1;" parent="518" vertex="1">
                    <mxGeometry x="30" width="90" height="150" as="geometry"/>
                </mxCell>
                <mxCell id="520" value="" style="endArrow=none;html=1;align=center;fontSize=30;entryX=0;entryY=0.267;entryDx=0;entryDy=0;entryPerimeter=0;" parent="518" target="519" edge="1">
                    <mxGeometry width="50" height="50" relative="1" as="geometry">
                        <mxPoint y="40" as="sourcePoint"/>
                        <mxPoint x="20" y="40" as="targetPoint"/>
                    </mxGeometry>
                </mxCell>
                <mxCell id="521" value="D&lt;sub&gt;1&lt;/sub&gt;" style="edgeLabel;html=1;align=left;verticalAlign=middle;resizable=0;points=[];fontSize=30;" parent="520" vertex="1" connectable="0">
                    <mxGeometry x="0.28" relative="1" as="geometry">
                        <mxPoint x="11" as="offset"/>
                    </mxGeometry>
                </mxCell>
                <mxCell id="522" value="" style="endArrow=none;html=1;align=center;exitX=1;exitY=0.267;exitDx=0;exitDy=0;fontSize=30;exitPerimeter=0;" parent="518" source="519" edge="1">
                    <mxGeometry width="50" height="50" relative="1" as="geometry">
                        <mxPoint x="135.55555555555566" y="30" as="sourcePoint"/>
                        <mxPoint x="150" y="40" as="targetPoint"/>
                    </mxGeometry>
                </mxCell>
                <mxCell id="523" value="Q&lt;sub&gt;1&lt;/sub&gt;" style="edgeLabel;html=1;align=right;verticalAlign=middle;resizable=0;points=[];fontSize=30;" parent="522" vertex="1" connectable="0">
                    <mxGeometry x="0.28" relative="1" as="geometry">
                        <mxPoint x="-19" as="offset"/>
                    </mxGeometry>
                </mxCell>
                <mxCell id="524" value="" style="endArrow=none;html=1;align=center;fontSize=30;entryX=0;entryY=0.5;entryDx=0;entryDy=0;" parent="518" target="525" edge="1">
                    <mxGeometry width="50" height="50" relative="1" as="geometry">
                        <mxPoint y="110" as="sourcePoint"/>
                        <mxPoint x="20" y="109.98000000000002" as="targetPoint"/>
                    </mxGeometry>
                </mxCell>
                <mxCell id="525" value="" style="triangle;whiteSpace=wrap;html=1;" parent="518" vertex="1">
                    <mxGeometry x="30.00444444444429" y="97.5" width="22.22222222222222" height="25" as="geometry"/>
                </mxCell>
                <mxCell id="526" value="" style="group" parent="559" vertex="1" connectable="0">
                    <mxGeometry x="480" y="120" width="150" height="150" as="geometry"/>
                </mxCell>
                <mxCell id="527" value="" style="rounded=0;whiteSpace=wrap;html=1;" parent="526" vertex="1">
                    <mxGeometry x="30" width="90" height="150" as="geometry"/>
                </mxCell>
                <mxCell id="528" value="" style="endArrow=none;html=1;align=center;fontSize=30;entryX=0;entryY=0.267;entryDx=0;entryDy=0;entryPerimeter=0;" parent="526" target="527" edge="1">
                    <mxGeometry width="50" height="50" relative="1" as="geometry">
                        <mxPoint y="40" as="sourcePoint"/>
                        <mxPoint x="20" y="40" as="targetPoint"/>
                    </mxGeometry>
                </mxCell>
                <mxCell id="529" value="D&lt;sub&gt;0&lt;/sub&gt;" style="edgeLabel;html=1;align=left;verticalAlign=middle;resizable=0;points=[];fontSize=30;" parent="528" vertex="1" connectable="0">
                    <mxGeometry x="0.28" relative="1" as="geometry">
                        <mxPoint x="11" as="offset"/>
                    </mxGeometry>
                </mxCell>
                <mxCell id="530" value="" style="endArrow=none;html=1;align=center;exitX=1;exitY=0.267;exitDx=0;exitDy=0;fontSize=30;exitPerimeter=0;" parent="526" source="527" edge="1">
                    <mxGeometry width="50" height="50" relative="1" as="geometry">
                        <mxPoint x="135.55555555555566" y="30" as="sourcePoint"/>
                        <mxPoint x="150" y="40" as="targetPoint"/>
                    </mxGeometry>
                </mxCell>
                <mxCell id="531" value="Q&lt;sub&gt;0&lt;/sub&gt;" style="edgeLabel;html=1;align=right;verticalAlign=middle;resizable=0;points=[];fontSize=30;" parent="530" vertex="1" connectable="0">
                    <mxGeometry x="0.28" relative="1" as="geometry">
                        <mxPoint x="-19" as="offset"/>
                    </mxGeometry>
                </mxCell>
                <mxCell id="532" value="" style="endArrow=none;html=1;align=center;fontSize=30;entryX=0;entryY=0.5;entryDx=0;entryDy=0;" parent="526" target="533" edge="1">
                    <mxGeometry width="50" height="50" relative="1" as="geometry">
                        <mxPoint y="110" as="sourcePoint"/>
                        <mxPoint x="20" y="109.98000000000002" as="targetPoint"/>
                    </mxGeometry>
                </mxCell>
                <mxCell id="533" value="" style="triangle;whiteSpace=wrap;html=1;" parent="526" vertex="1">
                    <mxGeometry x="30.00444444444429" y="97.5" width="22.22222222222222" height="25" as="geometry"/>
                </mxCell>
                <mxCell id="534" value="" style="endArrow=none;html=1;align=center;fontSize=30;" parent="559" edge="1">
                    <mxGeometry width="50" height="50" relative="1" as="geometry">
                        <mxPoint x="30" y="310" as="sourcePoint"/>
                        <mxPoint x="30" y="230" as="targetPoint"/>
                    </mxGeometry>
                </mxCell>
                <mxCell id="535" value="" style="endArrow=none;html=1;align=center;fontSize=30;" parent="559" edge="1">
                    <mxGeometry width="50" height="50" relative="1" as="geometry">
                        <mxPoint x="180" y="310" as="sourcePoint"/>
                        <mxPoint x="180" y="230" as="targetPoint"/>
                    </mxGeometry>
                </mxCell>
                <mxCell id="536" value="" style="endArrow=none;html=1;align=center;fontSize=30;" parent="559" edge="1">
                    <mxGeometry width="50" height="50" relative="1" as="geometry">
                        <mxPoint x="330" y="310" as="sourcePoint"/>
                        <mxPoint x="330" y="230" as="targetPoint"/>
                    </mxGeometry>
                </mxCell>
                <mxCell id="537" value="" style="endArrow=none;html=1;align=center;fontSize=30;" parent="559" edge="1">
                    <mxGeometry width="50" height="50" relative="1" as="geometry">
                        <mxPoint x="479.52" y="310" as="sourcePoint"/>
                        <mxPoint x="479.52" y="230" as="targetPoint"/>
                    </mxGeometry>
                </mxCell>
                <mxCell id="538" value="" style="endArrow=none;html=1;align=center;fontSize=30;exitX=0.9;exitY=0.5;exitDx=0;exitDy=0;exitPerimeter=0;" parent="559" source="540" edge="1">
                    <mxGeometry width="50" height="50" relative="1" as="geometry">
                        <mxPoint y="310" as="sourcePoint"/>
                        <mxPoint x="480" y="310" as="targetPoint"/>
                    </mxGeometry>
                </mxCell>
                <mxCell id="539" value="" style="verticalLabelPosition=bottom;shadow=0;dashed=0;align=center;html=1;verticalAlign=top;shape=mxgraph.electrical.logic_gates.inverting_contact;fillColor=#000000;" parent="559" vertex="1">
                    <mxGeometry x="175" y="305" width="10" height="10" as="geometry"/>
                </mxCell>
                <mxCell id="540" value="" style="verticalLabelPosition=bottom;shadow=0;dashed=0;align=center;html=1;verticalAlign=top;shape=mxgraph.electrical.logic_gates.inverting_contact;fillColor=#000000;" parent="559" vertex="1">
                    <mxGeometry x="25" y="305" width="10" height="10" as="geometry"/>
                </mxCell>
                <mxCell id="541" value="" style="verticalLabelPosition=bottom;shadow=0;dashed=0;align=center;html=1;verticalAlign=top;shape=mxgraph.electrical.logic_gates.inverting_contact;fillColor=#000000;" parent="559" vertex="1">
                    <mxGeometry x="325" y="305" width="10" height="10" as="geometry"/>
                </mxCell>
                <mxCell id="542" style="edgeStyle=orthogonalEdgeStyle;html=1;endArrow=none;endFill=0;rounded=0;" parent="559" edge="1">
                    <mxGeometry relative="1" as="geometry">
                        <mxPoint x="30" y="160" as="targetPoint"/>
                        <mxPoint x="60" y="60" as="sourcePoint"/>
                    </mxGeometry>
                </mxCell>
                <mxCell id="545" value="" style="endArrow=none;html=1;align=center;fontSize=30;entryX=0;entryY=0.25;entryDx=0;entryDy=0;entryPerimeter=0;rounded=0;" parent="559" target="550" edge="1">
                    <mxGeometry width="50" height="50" relative="1" as="geometry">
                        <mxPoint x="480" y="160" as="sourcePoint"/>
                        <mxPoint x="455" y="55" as="targetPoint"/>
                        <Array as="points">
                            <mxPoint x="480" y="45"/>
                        </Array>
                    </mxGeometry>
                </mxCell>
                <mxCell id="547" value="" style="endArrow=none;html=1;align=center;fontSize=30;entryX=0;entryY=0.75;entryDx=0;entryDy=0;entryPerimeter=0;rounded=0;" parent="559" target="550" edge="1">
                    <mxGeometry width="50" height="50" relative="1" as="geometry">
                        <mxPoint x="630" y="159" as="sourcePoint"/>
                        <mxPoint x="455" y="23" as="targetPoint"/>
                        <Array as="points">
                            <mxPoint x="630" y="15"/>
                        </Array>
                    </mxGeometry>
                </mxCell>
                <mxCell id="548" value="" style="verticalLabelPosition=bottom;shadow=0;dashed=0;align=center;html=1;verticalAlign=top;shape=mxgraph.electrical.logic_gates.inverting_contact;fillColor=#000000;" parent="559" vertex="1">
                    <mxGeometry x="475" y="155" width="10" height="10" as="geometry"/>
                </mxCell>
                <mxCell id="549" value="" style="verticalLabelPosition=bottom;shadow=0;dashed=0;align=center;html=1;verticalAlign=top;shape=mxgraph.electrical.logic_gates.inverting_contact;fillColor=#000000;" parent="559" vertex="1">
                    <mxGeometry x="625" y="155" width="10" height="10" as="geometry"/>
                </mxCell>
                <mxCell id="551" value="" style="verticalLabelPosition=bottom;shadow=0;dashed=0;align=center;html=1;verticalAlign=top;shape=mxgraph.electrical.logic_gates.logic_gate;operation=xor;rotation=-180;" parent="559" vertex="1">
                    <mxGeometry x="205" y="15" width="100" height="60" as="geometry"/>
                </mxCell>
                <mxCell id="552" value="" style="verticalLabelPosition=bottom;shadow=0;dashed=0;align=center;html=1;verticalAlign=top;shape=mxgraph.electrical.logic_gates.logic_gate;operation=xor;rotation=-180;" parent="559" vertex="1">
                    <mxGeometry x="55" y="30" width="100" height="60" as="geometry"/>
                </mxCell>
                <mxCell id="553" value="" style="endArrow=none;html=1;align=center;fontSize=30;rounded=0;entryX=0;entryY=0.25;entryDx=0;entryDy=0;entryPerimeter=0;" parent="559" target="552" edge="1">
                    <mxGeometry width="50" height="50" relative="1" as="geometry">
                        <mxPoint x="180" y="159" as="sourcePoint"/>
                        <mxPoint x="160" y="75" as="targetPoint"/>
                        <Array as="points">
                            <mxPoint x="180" y="75"/>
                        </Array>
                    </mxGeometry>
                </mxCell>
                <mxCell id="554" value="" style="verticalLabelPosition=bottom;shadow=0;dashed=0;align=center;html=1;verticalAlign=top;shape=mxgraph.electrical.logic_gates.inverting_contact;fillColor=#000000;" parent="559" vertex="1">
                    <mxGeometry x="175" y="155" width="10" height="10" as="geometry"/>
                </mxCell>
                <mxCell id="555" value="" style="endArrow=none;html=1;align=center;fontSize=30;entryX=0;entryY=0.25;entryDx=0;entryDy=0;entryPerimeter=0;rounded=0;" parent="559" target="551" edge="1">
                    <mxGeometry width="50" height="50" relative="1" as="geometry">
                        <mxPoint x="330" y="160" as="sourcePoint"/>
                        <mxPoint x="305" y="45" as="targetPoint"/>
                        <Array as="points">
                            <mxPoint x="330" y="60"/>
                        </Array>
                    </mxGeometry>
                </mxCell>
                <mxCell id="556" value="" style="verticalLabelPosition=bottom;shadow=0;dashed=0;align=center;html=1;verticalAlign=top;shape=mxgraph.electrical.logic_gates.inverting_contact;fillColor=#000000;" parent="559" vertex="1">
                    <mxGeometry x="325" y="155" width="10" height="10" as="geometry"/>
                </mxCell>
                <mxCell id="557" value="" style="endArrow=none;html=1;align=center;fontSize=30;exitX=0;exitY=0.75;exitDx=0;exitDy=0;exitPerimeter=0;entryX=1;entryY=0.5;entryDx=0;entryDy=0;entryPerimeter=0;" parent="559" source="551" target="550" edge="1">
                    <mxGeometry width="50" height="50" relative="1" as="geometry">
                        <mxPoint x="314.86" y="30" as="sourcePoint"/>
                        <mxPoint x="314.86" y="-50" as="targetPoint"/>
                    </mxGeometry>
                </mxCell>
                <mxCell id="558" value="" style="endArrow=none;html=1;align=center;fontSize=30;entryX=0;entryY=0.75;entryDx=0;entryDy=0;entryPerimeter=0;exitX=1;exitY=0.5;exitDx=0;exitDy=0;exitPerimeter=0;" parent="559" source="551" target="552" edge="1">
                    <mxGeometry width="50" height="50" relative="1" as="geometry">
                        <mxPoint x="324.86" y="40" as="sourcePoint"/>
                        <mxPoint x="324.86" y="-40" as="targetPoint"/>
                    </mxGeometry>
                </mxCell>
                <mxCell id="561" value="" style="endArrow=none;html=1;align=center;fontSize=30;" parent="1" edge="1">
                    <mxGeometry width="50" height="50" relative="1" as="geometry">
                        <mxPoint x="1610" y="1810" as="sourcePoint"/>
                        <mxPoint x="1640" y="1810" as="targetPoint"/>
                    </mxGeometry>
                </mxCell>
                <mxCell id="562" value="Takt" style="endArrow=none;html=1;align=center;fontSize=30;entryX=0;entryY=0.5;entryDx=0;entryDy=0;" parent="1" edge="1">
                    <mxGeometry x="-1" y="-40" width="50" height="50" relative="1" as="geometry">
                        <mxPoint x="880" y="1959.9099999999999" as="sourcePoint"/>
                        <mxPoint x="910.0044444444443" y="1959.9099999999999" as="targetPoint"/>
                        <mxPoint x="-40" y="-40" as="offset"/>
                    </mxGeometry>
                </mxCell>
                <mxCell id="563" value="" style="group" parent="1" vertex="1" connectable="0">
                    <mxGeometry x="910" y="1770" width="150" height="150" as="geometry"/>
                </mxCell>
                <mxCell id="564" value="" style="rounded=0;whiteSpace=wrap;html=1;" parent="563" vertex="1">
                    <mxGeometry x="30" width="90" height="150" as="geometry"/>
                </mxCell>
                <mxCell id="565" value="" style="endArrow=none;html=1;align=center;fontSize=30;entryX=0;entryY=0.267;entryDx=0;entryDy=0;entryPerimeter=0;" parent="563" target="564" edge="1">
                    <mxGeometry width="50" height="50" relative="1" as="geometry">
                        <mxPoint y="40" as="sourcePoint"/>
                        <mxPoint x="20" y="40" as="targetPoint"/>
                    </mxGeometry>
                </mxCell>
                <mxCell id="566" value="D&lt;sub&gt;3&lt;/sub&gt;" style="edgeLabel;html=1;align=left;verticalAlign=middle;resizable=0;points=[];fontSize=30;" parent="565" vertex="1" connectable="0">
                    <mxGeometry x="0.28" relative="1" as="geometry">
                        <mxPoint x="11" as="offset"/>
                    </mxGeometry>
                </mxCell>
                <mxCell id="567" value="" style="endArrow=none;html=1;align=center;exitX=1;exitY=0.267;exitDx=0;exitDy=0;fontSize=30;exitPerimeter=0;" parent="563" source="564" edge="1">
                    <mxGeometry width="50" height="50" relative="1" as="geometry">
                        <mxPoint x="135.55555555555566" y="30" as="sourcePoint"/>
                        <mxPoint x="150" y="40" as="targetPoint"/>
                    </mxGeometry>
                </mxCell>
                <mxCell id="568" value="Q&lt;sub&gt;3&lt;br&gt;&lt;/sub&gt;" style="edgeLabel;html=1;align=right;verticalAlign=middle;resizable=0;points=[];fontSize=30;" parent="567" vertex="1" connectable="0">
                    <mxGeometry x="0.28" relative="1" as="geometry">
                        <mxPoint x="-19" as="offset"/>
                    </mxGeometry>
                </mxCell>
                <mxCell id="569" value="" style="endArrow=none;html=1;align=center;fontSize=30;entryX=0;entryY=0.5;entryDx=0;entryDy=0;" parent="563" target="570" edge="1">
                    <mxGeometry width="50" height="50" relative="1" as="geometry">
                        <mxPoint y="110" as="sourcePoint"/>
                        <mxPoint x="20" y="109.98000000000002" as="targetPoint"/>
                    </mxGeometry>
                </mxCell>
                <mxCell id="570" value="" style="triangle;whiteSpace=wrap;html=1;" parent="563" vertex="1">
                    <mxGeometry x="30.00444444444429" y="97.5" width="22.22222222222222" height="25" as="geometry"/>
                </mxCell>
                <mxCell id="571" value="" style="group" parent="1" vertex="1" connectable="0">
                    <mxGeometry x="1060" y="1770" width="150" height="150" as="geometry"/>
                </mxCell>
                <mxCell id="572" value="" style="rounded=0;whiteSpace=wrap;html=1;" parent="571" vertex="1">
                    <mxGeometry x="30" width="90" height="150" as="geometry"/>
                </mxCell>
                <mxCell id="573" value="" style="endArrow=none;html=1;align=center;exitX=1;exitY=0.267;exitDx=0;exitDy=0;fontSize=30;exitPerimeter=0;" parent="571" source="572" edge="1">
                    <mxGeometry width="50" height="50" relative="1" as="geometry">
                        <mxPoint x="135.55555555555566" y="30" as="sourcePoint"/>
                        <mxPoint x="150" y="40" as="targetPoint"/>
                    </mxGeometry>
                </mxCell>
                <mxCell id="574" value="Q&lt;sub&gt;2&lt;/sub&gt;" style="edgeLabel;html=1;align=right;verticalAlign=middle;resizable=0;points=[];fontSize=30;" parent="573" vertex="1" connectable="0">
                    <mxGeometry x="0.28" relative="1" as="geometry">
                        <mxPoint x="-19" as="offset"/>
                    </mxGeometry>
                </mxCell>
                <mxCell id="575" value="" style="endArrow=none;html=1;align=center;fontSize=30;entryX=0;entryY=0.5;entryDx=0;entryDy=0;" parent="571" target="576" edge="1">
                    <mxGeometry width="50" height="50" relative="1" as="geometry">
                        <mxPoint y="110" as="sourcePoint"/>
                        <mxPoint x="20" y="109.98000000000002" as="targetPoint"/>
                    </mxGeometry>
                </mxCell>
                <mxCell id="576" value="" style="triangle;whiteSpace=wrap;html=1;" parent="571" vertex="1">
                    <mxGeometry x="30.00444444444429" y="97.5" width="22.22222222222222" height="25" as="geometry"/>
                </mxCell>
                <mxCell id="577" value="" style="group" parent="1" vertex="1" connectable="0">
                    <mxGeometry x="1310" y="1770" width="150" height="150" as="geometry"/>
                </mxCell>
                <mxCell id="578" value="" style="rounded=0;whiteSpace=wrap;html=1;" parent="577" vertex="1">
                    <mxGeometry x="30" width="90" height="150" as="geometry"/>
                </mxCell>
                <mxCell id="581" value="" style="endArrow=none;html=1;align=center;exitX=1;exitY=0.267;exitDx=0;exitDy=0;fontSize=30;exitPerimeter=0;" parent="577" source="578" edge="1">
                    <mxGeometry width="50" height="50" relative="1" as="geometry">
                        <mxPoint x="135.55555555555566" y="30" as="sourcePoint"/>
                        <mxPoint x="150" y="40" as="targetPoint"/>
                    </mxGeometry>
                </mxCell>
                <mxCell id="582" value="Q&lt;sub&gt;1&lt;/sub&gt;" style="edgeLabel;html=1;align=right;verticalAlign=middle;resizable=0;points=[];fontSize=30;" parent="581" vertex="1" connectable="0">
                    <mxGeometry x="0.28" relative="1" as="geometry">
                        <mxPoint x="-19" as="offset"/>
                    </mxGeometry>
                </mxCell>
                <mxCell id="583" value="" style="endArrow=none;html=1;align=center;fontSize=30;entryX=0;entryY=0.5;entryDx=0;entryDy=0;" parent="577" target="584" edge="1">
                    <mxGeometry width="50" height="50" relative="1" as="geometry">
                        <mxPoint y="110" as="sourcePoint"/>
                        <mxPoint x="20" y="109.98000000000002" as="targetPoint"/>
                    </mxGeometry>
                </mxCell>
                <mxCell id="584" value="" style="triangle;whiteSpace=wrap;html=1;" parent="577" vertex="1">
                    <mxGeometry x="30.00444444444429" y="97.5" width="22.22222222222222" height="25" as="geometry"/>
                </mxCell>
                <mxCell id="585" value="" style="group" parent="1" vertex="1" connectable="0">
                    <mxGeometry x="1460" y="1770" width="150" height="150" as="geometry"/>
                </mxCell>
                <mxCell id="586" value="" style="rounded=0;whiteSpace=wrap;html=1;" parent="585" vertex="1">
                    <mxGeometry x="30" width="90" height="150" as="geometry"/>
                </mxCell>
                <mxCell id="587" value="" style="endArrow=none;html=1;align=center;fontSize=30;entryX=0;entryY=0.267;entryDx=0;entryDy=0;entryPerimeter=0;" parent="585" target="586" edge="1">
                    <mxGeometry width="50" height="50" relative="1" as="geometry">
                        <mxPoint y="40" as="sourcePoint"/>
                        <mxPoint x="20" y="40" as="targetPoint"/>
                    </mxGeometry>
                </mxCell>
                <mxCell id="588" value="D&lt;sub&gt;0&lt;/sub&gt;" style="edgeLabel;html=1;align=left;verticalAlign=middle;resizable=0;points=[];fontSize=30;" parent="587" vertex="1" connectable="0">
                    <mxGeometry x="0.28" relative="1" as="geometry">
                        <mxPoint x="11" as="offset"/>
                    </mxGeometry>
                </mxCell>
                <mxCell id="589" value="" style="endArrow=none;html=1;align=center;exitX=1;exitY=0.267;exitDx=0;exitDy=0;fontSize=30;exitPerimeter=0;" parent="585" source="586" edge="1">
                    <mxGeometry width="50" height="50" relative="1" as="geometry">
                        <mxPoint x="135.55555555555566" y="30" as="sourcePoint"/>
                        <mxPoint x="150" y="40" as="targetPoint"/>
                    </mxGeometry>
                </mxCell>
                <mxCell id="590" value="Q&lt;sub&gt;0&lt;/sub&gt;" style="edgeLabel;html=1;align=right;verticalAlign=middle;resizable=0;points=[];fontSize=30;" parent="589" vertex="1" connectable="0">
                    <mxGeometry x="0.28" relative="1" as="geometry">
                        <mxPoint x="-19" as="offset"/>
                    </mxGeometry>
                </mxCell>
                <mxCell id="591" value="" style="endArrow=none;html=1;align=center;fontSize=30;entryX=0;entryY=0.5;entryDx=0;entryDy=0;" parent="585" target="592" edge="1">
                    <mxGeometry width="50" height="50" relative="1" as="geometry">
                        <mxPoint y="110" as="sourcePoint"/>
                        <mxPoint x="20" y="109.98000000000002" as="targetPoint"/>
                    </mxGeometry>
                </mxCell>
                <mxCell id="592" value="" style="triangle;whiteSpace=wrap;html=1;" parent="585" vertex="1">
                    <mxGeometry x="30.00444444444429" y="97.5" width="22.22222222222222" height="25" as="geometry"/>
                </mxCell>
                <mxCell id="593" value="" style="endArrow=none;html=1;align=center;fontSize=30;" parent="1" edge="1">
                    <mxGeometry width="50" height="50" relative="1" as="geometry">
                        <mxPoint x="910" y="1960" as="sourcePoint"/>
                        <mxPoint x="910" y="1879.9999999999998" as="targetPoint"/>
                    </mxGeometry>
                </mxCell>
                <mxCell id="594" value="" style="endArrow=none;html=1;align=center;fontSize=30;" parent="1" edge="1">
                    <mxGeometry width="50" height="50" relative="1" as="geometry">
                        <mxPoint x="1060" y="1960" as="sourcePoint"/>
                        <mxPoint x="1060" y="1879.9999999999998" as="targetPoint"/>
                    </mxGeometry>
                </mxCell>
                <mxCell id="595" value="" style="endArrow=none;html=1;align=center;fontSize=30;" parent="1" edge="1">
                    <mxGeometry width="50" height="50" relative="1" as="geometry">
                        <mxPoint x="1310" y="1960" as="sourcePoint"/>
                        <mxPoint x="1310" y="1879.9999999999998" as="targetPoint"/>
                    </mxGeometry>
                </mxCell>
                <mxCell id="596" value="" style="endArrow=none;html=1;align=center;fontSize=30;" parent="1" edge="1">
                    <mxGeometry width="50" height="50" relative="1" as="geometry">
                        <mxPoint x="1459.52" y="1960" as="sourcePoint"/>
                        <mxPoint x="1459.52" y="1879.9999999999998" as="targetPoint"/>
                    </mxGeometry>
                </mxCell>
                <mxCell id="597" value="" style="endArrow=none;html=1;align=center;fontSize=30;exitX=0.9;exitY=0.5;exitDx=0;exitDy=0;exitPerimeter=0;" parent="1" source="599" edge="1">
                    <mxGeometry width="50" height="50" relative="1" as="geometry">
                        <mxPoint x="980" y="1960" as="sourcePoint"/>
                        <mxPoint x="1460" y="1960" as="targetPoint"/>
                    </mxGeometry>
                </mxCell>
                <mxCell id="598" value="" style="verticalLabelPosition=bottom;shadow=0;dashed=0;align=center;html=1;verticalAlign=top;shape=mxgraph.electrical.logic_gates.inverting_contact;fillColor=#000000;" parent="1" vertex="1">
                    <mxGeometry x="1055" y="1955" width="10" height="10" as="geometry"/>
                </mxCell>
                <mxCell id="599" value="" style="verticalLabelPosition=bottom;shadow=0;dashed=0;align=center;html=1;verticalAlign=top;shape=mxgraph.electrical.logic_gates.inverting_contact;fillColor=#000000;" parent="1" vertex="1">
                    <mxGeometry x="905" y="1955" width="10" height="10" as="geometry"/>
                </mxCell>
                <mxCell id="600" value="" style="verticalLabelPosition=bottom;shadow=0;dashed=0;align=center;html=1;verticalAlign=top;shape=mxgraph.electrical.logic_gates.inverting_contact;fillColor=#000000;" parent="1" vertex="1">
                    <mxGeometry x="1305" y="1955" width="10" height="10" as="geometry"/>
                </mxCell>
                <mxCell id="601" style="edgeStyle=orthogonalEdgeStyle;html=1;endArrow=none;endFill=0;rounded=0;" parent="1" source="604" edge="1">
                    <mxGeometry relative="1" as="geometry">
                        <mxPoint x="910" y="1810" as="targetPoint"/>
                        <mxPoint x="1335" y="1710" as="sourcePoint"/>
                        <Array as="points">
                            <mxPoint x="1610" y="1740"/>
                            <mxPoint x="910" y="1740"/>
                        </Array>
                    </mxGeometry>
                </mxCell>
                <mxCell id="602" value="" style="endArrow=none;html=1;align=center;fontSize=30;edgeStyle=orthogonalEdgeStyle;rounded=0;" parent="1" edge="1">
                    <mxGeometry width="50" height="50" relative="1" as="geometry">
                        <mxPoint x="1210" y="1780" as="sourcePoint"/>
                        <mxPoint x="1205" y="1740" as="targetPoint"/>
                        <Array as="points">
                            <mxPoint x="1205" y="1780"/>
                        </Array>
                    </mxGeometry>
                </mxCell>
                <mxCell id="603" value="" style="verticalLabelPosition=bottom;shadow=0;dashed=0;align=center;html=1;verticalAlign=top;shape=mxgraph.electrical.logic_gates.inverting_contact;fillColor=#000000;" parent="1" vertex="1">
                    <mxGeometry x="1200" y="1735" width="10" height="10" as="geometry"/>
                </mxCell>
                <mxCell id="604" value="" style="verticalLabelPosition=bottom;shadow=0;dashed=0;align=center;html=1;verticalAlign=top;shape=mxgraph.electrical.logic_gates.inverting_contact;fillColor=#000000;" parent="1" vertex="1">
                    <mxGeometry x="1605" y="1805" width="10" height="10" as="geometry"/>
                </mxCell>
                <mxCell id="606" value="" style="verticalLabelPosition=bottom;shadow=0;dashed=0;align=center;html=1;verticalAlign=top;shape=mxgraph.electrical.logic_gates.logic_gate;operation=xor;" parent="1" vertex="1">
                    <mxGeometry x="1210" y="1765" width="100" height="60" as="geometry"/>
                </mxCell>
                <mxCell id="607" value="" style="endArrow=none;html=1;align=center;fontSize=30;entryX=0;entryY=0.267;entryDx=0;entryDy=0;entryPerimeter=0;" parent="1" target="572" edge="1">
                    <mxGeometry width="50" height="50" relative="1" as="geometry">
                        <mxPoint x="1060" y="1810" as="sourcePoint"/>
                        <mxPoint x="1180" y="1810" as="targetPoint"/>
                    </mxGeometry>
                </mxCell>
                <mxCell id="608" value="D&lt;sub&gt;2&lt;/sub&gt;" style="edgeLabel;html=1;align=left;verticalAlign=middle;resizable=0;points=[];fontSize=30;" parent="607" vertex="1" connectable="0">
                    <mxGeometry x="0.28" relative="1" as="geometry">
                        <mxPoint x="11" as="offset"/>
                    </mxGeometry>
                </mxCell>
                <mxCell id="579" value="" style="endArrow=none;html=1;align=center;fontSize=30;entryX=0;entryY=0.267;entryDx=0;entryDy=0;entryPerimeter=0;exitX=1;exitY=0.5;exitDx=0;exitDy=0;exitPerimeter=0;" parent="1" source="606" target="578" edge="1">
                    <mxGeometry width="50" height="50" relative="1" as="geometry">
                        <mxPoint x="1310" y="1810" as="sourcePoint"/>
                        <mxPoint x="1330" y="1810" as="targetPoint"/>
                    </mxGeometry>
                </mxCell>
                <mxCell id="580" value="D&lt;sub&gt;1&lt;/sub&gt;" style="edgeLabel;html=1;align=left;verticalAlign=middle;resizable=0;points=[];fontSize=30;" parent="579" vertex="1" connectable="0">
                    <mxGeometry x="0.28" relative="1" as="geometry">
                        <mxPoint x="11" y="5" as="offset"/>
                    </mxGeometry>
                </mxCell>
                <mxCell id="612" value="Takt" style="endArrow=none;html=1;align=center;fontSize=30;entryX=0;entryY=0.5;entryDx=0;entryDy=0;" parent="1" edge="1">
                    <mxGeometry x="-1" y="-40" width="50" height="50" relative="1" as="geometry">
                        <mxPoint x="880" y="3069.91" as="sourcePoint"/>
                        <mxPoint x="910.0044444444443" y="3069.91" as="targetPoint"/>
                        <mxPoint x="-40" y="-40" as="offset"/>
                    </mxGeometry>
                </mxCell>
                <mxCell id="613" value="" style="group" parent="1" vertex="1" connectable="0">
                    <mxGeometry x="910" y="2880" width="150" height="150" as="geometry"/>
                </mxCell>
                <mxCell id="614" value="" style="rounded=0;whiteSpace=wrap;html=1;" parent="613" vertex="1">
                    <mxGeometry x="30" width="90" height="150" as="geometry"/>
                </mxCell>
                <mxCell id="615" value="" style="endArrow=none;html=1;align=center;fontSize=30;entryX=0;entryY=0.267;entryDx=0;entryDy=0;entryPerimeter=0;" parent="613" target="614" edge="1">
                    <mxGeometry width="50" height="50" relative="1" as="geometry">
                        <mxPoint y="40" as="sourcePoint"/>
                        <mxPoint x="20" y="40" as="targetPoint"/>
                    </mxGeometry>
                </mxCell>
                <mxCell id="616" value="D&lt;sub&gt;3&lt;/sub&gt;" style="edgeLabel;html=1;align=left;verticalAlign=middle;resizable=0;points=[];fontSize=30;" parent="615" vertex="1" connectable="0">
                    <mxGeometry x="0.28" relative="1" as="geometry">
                        <mxPoint x="11" as="offset"/>
                    </mxGeometry>
                </mxCell>
                <mxCell id="617" value="" style="endArrow=none;html=1;align=center;exitX=1;exitY=0.267;exitDx=0;exitDy=0;fontSize=30;exitPerimeter=0;" parent="613" source="614" edge="1">
                    <mxGeometry width="50" height="50" relative="1" as="geometry">
                        <mxPoint x="135.55555555555566" y="30" as="sourcePoint"/>
                        <mxPoint x="150" y="40" as="targetPoint"/>
                    </mxGeometry>
                </mxCell>
                <mxCell id="618" value="Q&lt;sub&gt;3&lt;br&gt;&lt;/sub&gt;" style="edgeLabel;html=1;align=right;verticalAlign=middle;resizable=0;points=[];fontSize=30;" parent="617" vertex="1" connectable="0">
                    <mxGeometry x="0.28" relative="1" as="geometry">
                        <mxPoint x="-19" as="offset"/>
                    </mxGeometry>
                </mxCell>
                <mxCell id="619" value="" style="endArrow=none;html=1;align=center;fontSize=30;entryX=0;entryY=0.5;entryDx=0;entryDy=0;" parent="613" target="620" edge="1">
                    <mxGeometry width="50" height="50" relative="1" as="geometry">
                        <mxPoint y="110" as="sourcePoint"/>
                        <mxPoint x="20" y="109.98000000000002" as="targetPoint"/>
                    </mxGeometry>
                </mxCell>
                <mxCell id="620" value="" style="triangle;whiteSpace=wrap;html=1;" parent="613" vertex="1">
                    <mxGeometry x="30.00444444444429" y="97.5" width="22.22222222222222" height="25" as="geometry"/>
                </mxCell>
                <mxCell id="621" value="" style="group" parent="1" vertex="1" connectable="0">
                    <mxGeometry x="1160" y="2880" width="150" height="150" as="geometry"/>
                </mxCell>
                <mxCell id="622" value="" style="rounded=0;whiteSpace=wrap;html=1;" parent="621" vertex="1">
                    <mxGeometry x="30" width="90" height="150" as="geometry"/>
                </mxCell>
                <mxCell id="623" value="" style="endArrow=none;html=1;align=center;exitX=1;exitY=0.267;exitDx=0;exitDy=0;fontSize=30;exitPerimeter=0;" parent="621" source="622" edge="1">
                    <mxGeometry width="50" height="50" relative="1" as="geometry">
                        <mxPoint x="135.55555555555566" y="30" as="sourcePoint"/>
                        <mxPoint x="150" y="40" as="targetPoint"/>
                    </mxGeometry>
                </mxCell>
                <mxCell id="624" value="Q&lt;sub&gt;2&lt;/sub&gt;" style="edgeLabel;html=1;align=right;verticalAlign=middle;resizable=0;points=[];fontSize=30;" parent="623" vertex="1" connectable="0">
                    <mxGeometry x="0.28" relative="1" as="geometry">
                        <mxPoint x="-19" as="offset"/>
                    </mxGeometry>
                </mxCell>
                <mxCell id="625" value="" style="endArrow=none;html=1;align=center;fontSize=30;entryX=0;entryY=0.5;entryDx=0;entryDy=0;" parent="621" target="626" edge="1">
                    <mxGeometry width="50" height="50" relative="1" as="geometry">
                        <mxPoint y="110" as="sourcePoint"/>
                        <mxPoint x="20" y="109.98000000000002" as="targetPoint"/>
                    </mxGeometry>
                </mxCell>
                <mxCell id="626" value="" style="triangle;whiteSpace=wrap;html=1;" parent="621" vertex="1">
                    <mxGeometry x="30.00444444444429" y="97.5" width="22.22222222222222" height="25" as="geometry"/>
                </mxCell>
                <mxCell id="643" value="" style="endArrow=none;html=1;align=center;fontSize=30;" parent="1" edge="1">
                    <mxGeometry width="50" height="50" relative="1" as="geometry">
                        <mxPoint x="910" y="3070" as="sourcePoint"/>
                        <mxPoint x="910" y="2990" as="targetPoint"/>
                    </mxGeometry>
                </mxCell>
                <mxCell id="644" value="" style="endArrow=none;html=1;align=center;fontSize=30;" parent="1" edge="1">
                    <mxGeometry width="50" height="50" relative="1" as="geometry">
                        <mxPoint x="1160" y="3070" as="sourcePoint"/>
                        <mxPoint x="1160" y="2990" as="targetPoint"/>
                    </mxGeometry>
                </mxCell>
                <mxCell id="647" value="" style="endArrow=none;html=1;align=center;fontSize=30;exitX=0.9;exitY=0.5;exitDx=0;exitDy=0;exitPerimeter=0;" parent="1" source="649" edge="1">
                    <mxGeometry width="50" height="50" relative="1" as="geometry">
                        <mxPoint x="980" y="3070" as="sourcePoint"/>
                        <mxPoint x="1660" y="3070" as="targetPoint"/>
                    </mxGeometry>
                </mxCell>
                <mxCell id="648" value="" style="verticalLabelPosition=bottom;shadow=0;dashed=0;align=center;html=1;verticalAlign=top;shape=mxgraph.electrical.logic_gates.inverting_contact;fillColor=#000000;" parent="1" vertex="1">
                    <mxGeometry x="1155" y="3065" width="10" height="10" as="geometry"/>
                </mxCell>
                <mxCell id="649" value="" style="verticalLabelPosition=bottom;shadow=0;dashed=0;align=center;html=1;verticalAlign=top;shape=mxgraph.electrical.logic_gates.inverting_contact;fillColor=#000000;" parent="1" vertex="1">
                    <mxGeometry x="905" y="3065" width="10" height="10" as="geometry"/>
                </mxCell>
                <mxCell id="651" style="edgeStyle=orthogonalEdgeStyle;html=1;endArrow=none;endFill=0;rounded=0;exitX=0.9;exitY=0.5;exitDx=0;exitDy=0;exitPerimeter=0;" parent="1" source="679" edge="1">
                    <mxGeometry relative="1" as="geometry">
                        <mxPoint x="910" y="2920" as="targetPoint"/>
                        <mxPoint x="1840" y="2920" as="sourcePoint"/>
                        <Array as="points">
                            <mxPoint x="1810" y="2920"/>
                            <mxPoint x="1810" y="2850"/>
                            <mxPoint x="910" y="2850"/>
                        </Array>
                    </mxGeometry>
                </mxCell>
                <mxCell id="652" value="" style="endArrow=none;html=1;align=center;fontSize=30;edgeStyle=orthogonalEdgeStyle;rounded=0;" parent="1" edge="1">
                    <mxGeometry width="50" height="50" relative="1" as="geometry">
                        <mxPoint x="1060" y="2890" as="sourcePoint"/>
                        <mxPoint x="1055" y="2850" as="targetPoint"/>
                        <Array as="points">
                            <mxPoint x="1055" y="2890"/>
                        </Array>
                    </mxGeometry>
                </mxCell>
                <mxCell id="653" value="" style="verticalLabelPosition=bottom;shadow=0;dashed=0;align=center;html=1;verticalAlign=top;shape=mxgraph.electrical.logic_gates.inverting_contact;fillColor=#000000;" parent="1" vertex="1">
                    <mxGeometry x="1050" y="2845" width="10" height="10" as="geometry"/>
                </mxCell>
                <mxCell id="655" style="edgeStyle=none;html=1;exitX=0;exitY=0.75;exitDx=0;exitDy=0;exitPerimeter=0;endArrow=none;endFill=0;" parent="1" source="656" edge="1">
                    <mxGeometry relative="1" as="geometry">
                        <mxPoint x="1060" y="2920" as="targetPoint"/>
                    </mxGeometry>
                </mxCell>
                <mxCell id="656" value="" style="verticalLabelPosition=bottom;shadow=0;dashed=0;align=center;html=1;verticalAlign=top;shape=mxgraph.electrical.logic_gates.logic_gate;operation=xor;" parent="1" vertex="1">
                    <mxGeometry x="1060" y="2875" width="100" height="60" as="geometry"/>
                </mxCell>
                <mxCell id="657" value="" style="endArrow=none;html=1;align=center;fontSize=30;entryX=0;entryY=0.267;entryDx=0;entryDy=0;entryPerimeter=0;exitX=1;exitY=0.5;exitDx=0;exitDy=0;exitPerimeter=0;" parent="1" source="656" target="622" edge="1">
                    <mxGeometry width="50" height="50" relative="1" as="geometry">
                        <mxPoint x="1160" y="2920" as="sourcePoint"/>
                        <mxPoint x="1180" y="2920" as="targetPoint"/>
                    </mxGeometry>
                </mxCell>
                <mxCell id="658" value="D&lt;sub&gt;2&lt;/sub&gt;" style="edgeLabel;html=1;align=left;verticalAlign=middle;resizable=0;points=[];fontSize=30;" parent="657" vertex="1" connectable="0">
                    <mxGeometry x="0.28" relative="1" as="geometry">
                        <mxPoint x="11" y="5" as="offset"/>
                    </mxGeometry>
                </mxCell>
                <mxCell id="659" value="" style="endArrow=none;html=1;align=center;fontSize=30;" parent="1" edge="1">
                    <mxGeometry width="50" height="50" relative="1" as="geometry">
                        <mxPoint x="1810" y="2920" as="sourcePoint"/>
                        <mxPoint x="1840" y="2920" as="targetPoint"/>
                    </mxGeometry>
                </mxCell>
                <mxCell id="660" value="" style="group" parent="1" vertex="1" connectable="0">
                    <mxGeometry x="1410" y="2880" width="150" height="150" as="geometry"/>
                </mxCell>
                <mxCell id="661" value="" style="rounded=0;whiteSpace=wrap;html=1;" parent="660" vertex="1">
                    <mxGeometry x="30" width="90" height="150" as="geometry"/>
                </mxCell>
                <mxCell id="662" value="" style="endArrow=none;html=1;align=center;exitX=1;exitY=0.267;exitDx=0;exitDy=0;fontSize=30;exitPerimeter=0;" parent="660" source="661" edge="1">
                    <mxGeometry width="50" height="50" relative="1" as="geometry">
                        <mxPoint x="135.55555555555566" y="30" as="sourcePoint"/>
                        <mxPoint x="150" y="40" as="targetPoint"/>
                    </mxGeometry>
                </mxCell>
                <mxCell id="663" value="Q&lt;sub&gt;1&lt;/sub&gt;" style="edgeLabel;html=1;align=right;verticalAlign=middle;resizable=0;points=[];fontSize=30;" parent="662" vertex="1" connectable="0">
                    <mxGeometry x="0.28" relative="1" as="geometry">
                        <mxPoint x="-19" as="offset"/>
                    </mxGeometry>
                </mxCell>
                <mxCell id="664" value="" style="endArrow=none;html=1;align=center;fontSize=30;entryX=0;entryY=0.5;entryDx=0;entryDy=0;" parent="660" target="665" edge="1">
                    <mxGeometry width="50" height="50" relative="1" as="geometry">
                        <mxPoint y="110" as="sourcePoint"/>
                        <mxPoint x="20" y="109.98000000000002" as="targetPoint"/>
                    </mxGeometry>
                </mxCell>
                <mxCell id="665" value="" style="triangle;whiteSpace=wrap;html=1;" parent="660" vertex="1">
                    <mxGeometry x="30.00444444444429" y="97.5" width="22.22222222222222" height="25" as="geometry"/>
                </mxCell>
                <mxCell id="666" value="" style="group" parent="1" vertex="1" connectable="0">
                    <mxGeometry x="1660" y="2880" width="150" height="150" as="geometry"/>
                </mxCell>
                <mxCell id="667" value="" style="rounded=0;whiteSpace=wrap;html=1;" parent="666" vertex="1">
                    <mxGeometry x="30" width="90" height="150" as="geometry"/>
                </mxCell>
                <mxCell id="670" value="" style="endArrow=none;html=1;align=center;exitX=1;exitY=0.267;exitDx=0;exitDy=0;fontSize=30;exitPerimeter=0;" parent="666" source="667" edge="1">
                    <mxGeometry width="50" height="50" relative="1" as="geometry">
                        <mxPoint x="135.55555555555566" y="30" as="sourcePoint"/>
                        <mxPoint x="150" y="40" as="targetPoint"/>
                    </mxGeometry>
                </mxCell>
                <mxCell id="671" value="Q&lt;sub&gt;0&lt;/sub&gt;" style="edgeLabel;html=1;align=right;verticalAlign=middle;resizable=0;points=[];fontSize=30;" parent="670" vertex="1" connectable="0">
                    <mxGeometry x="0.28" relative="1" as="geometry">
                        <mxPoint x="-19" as="offset"/>
                    </mxGeometry>
                </mxCell>
                <mxCell id="672" value="" style="endArrow=none;html=1;align=center;fontSize=30;entryX=0;entryY=0.5;entryDx=0;entryDy=0;" parent="666" target="673" edge="1">
                    <mxGeometry width="50" height="50" relative="1" as="geometry">
                        <mxPoint y="110" as="sourcePoint"/>
                        <mxPoint x="20" y="109.98000000000002" as="targetPoint"/>
                    </mxGeometry>
                </mxCell>
                <mxCell id="673" value="" style="triangle;whiteSpace=wrap;html=1;" parent="666" vertex="1">
                    <mxGeometry x="30.00444444444429" y="97.5" width="22.22222222222222" height="25" as="geometry"/>
                </mxCell>
                <mxCell id="674" value="" style="endArrow=none;html=1;align=center;fontSize=30;" parent="1" edge="1">
                    <mxGeometry width="50" height="50" relative="1" as="geometry">
                        <mxPoint x="1410" y="3070" as="sourcePoint"/>
                        <mxPoint x="1410" y="2990" as="targetPoint"/>
                    </mxGeometry>
                </mxCell>
                <mxCell id="676" value="" style="verticalLabelPosition=bottom;shadow=0;dashed=0;align=center;html=1;verticalAlign=top;shape=mxgraph.electrical.logic_gates.inverting_contact;fillColor=#000000;" parent="1" vertex="1">
                    <mxGeometry x="1405" y="3065" width="10" height="10" as="geometry"/>
                </mxCell>
                <mxCell id="677" value="" style="endArrow=none;html=1;align=center;fontSize=30;edgeStyle=orthogonalEdgeStyle;rounded=0;" parent="1" edge="1">
                    <mxGeometry width="50" height="50" relative="1" as="geometry">
                        <mxPoint x="1310" y="2890" as="sourcePoint"/>
                        <mxPoint x="1305" y="2850" as="targetPoint"/>
                        <Array as="points">
                            <mxPoint x="1305" y="2890"/>
                        </Array>
                    </mxGeometry>
                </mxCell>
                <mxCell id="678" value="" style="verticalLabelPosition=bottom;shadow=0;dashed=0;align=center;html=1;verticalAlign=top;shape=mxgraph.electrical.logic_gates.inverting_contact;fillColor=#000000;" parent="1" vertex="1">
                    <mxGeometry x="1300" y="2845" width="10" height="10" as="geometry"/>
                </mxCell>
                <mxCell id="679" value="" style="verticalLabelPosition=bottom;shadow=0;dashed=0;align=center;html=1;verticalAlign=top;shape=mxgraph.electrical.logic_gates.inverting_contact;fillColor=#000000;" parent="1" vertex="1">
                    <mxGeometry x="1805" y="2915" width="10" height="10" as="geometry"/>
                </mxCell>
                <mxCell id="680" value="" style="verticalLabelPosition=bottom;shadow=0;dashed=0;align=center;html=1;verticalAlign=top;shape=mxgraph.electrical.logic_gates.logic_gate;operation=xor;" parent="1" vertex="1">
                    <mxGeometry x="1310" y="2875" width="100" height="60" as="geometry"/>
                </mxCell>
                <mxCell id="681" value="" style="endArrow=none;html=1;align=center;fontSize=30;entryX=0;entryY=0.267;entryDx=0;entryDy=0;entryPerimeter=0;exitX=1;exitY=0.5;exitDx=0;exitDy=0;exitPerimeter=0;" parent="1" source="680" target="661" edge="1">
                    <mxGeometry width="50" height="50" relative="1" as="geometry">
                        <mxPoint x="1410" y="2920" as="sourcePoint"/>
                        <mxPoint x="1430" y="2920" as="targetPoint"/>
                    </mxGeometry>
                </mxCell>
                <mxCell id="682" value="D&lt;sub&gt;1&lt;/sub&gt;" style="edgeLabel;html=1;align=left;verticalAlign=middle;resizable=0;points=[];fontSize=30;" parent="681" vertex="1" connectable="0">
                    <mxGeometry x="0.28" relative="1" as="geometry">
                        <mxPoint x="11" y="5" as="offset"/>
                    </mxGeometry>
                </mxCell>
                <mxCell id="683" value="" style="endArrow=none;html=1;align=center;fontSize=30;edgeStyle=orthogonalEdgeStyle;rounded=0;" parent="1" edge="1">
                    <mxGeometry width="50" height="50" relative="1" as="geometry">
                        <mxPoint x="1560" y="2890" as="sourcePoint"/>
                        <mxPoint x="1555" y="2850" as="targetPoint"/>
                        <Array as="points">
                            <mxPoint x="1555" y="2890"/>
                        </Array>
                    </mxGeometry>
                </mxCell>
                <mxCell id="684" value="" style="verticalLabelPosition=bottom;shadow=0;dashed=0;align=center;html=1;verticalAlign=top;shape=mxgraph.electrical.logic_gates.inverting_contact;fillColor=#000000;" parent="1" vertex="1">
                    <mxGeometry x="1550" y="2845" width="10" height="10" as="geometry"/>
                </mxCell>
                <mxCell id="685" value="" style="verticalLabelPosition=bottom;shadow=0;dashed=0;align=center;html=1;verticalAlign=top;shape=mxgraph.electrical.logic_gates.logic_gate;operation=xor;" parent="1" vertex="1">
                    <mxGeometry x="1560" y="2875" width="100" height="60" as="geometry"/>
                </mxCell>
                <mxCell id="687" value="" style="endArrow=none;html=1;align=center;fontSize=30;" parent="1" edge="1">
                    <mxGeometry width="50" height="50" relative="1" as="geometry">
                        <mxPoint x="1660" y="3070" as="sourcePoint"/>
                        <mxPoint x="1660" y="2990" as="targetPoint"/>
                    </mxGeometry>
                </mxCell>
                <mxCell id="668" value="" style="endArrow=none;html=1;align=center;fontSize=30;entryX=0;entryY=0.267;entryDx=0;entryDy=0;entryPerimeter=0;exitX=1;exitY=0.5;exitDx=0;exitDy=0;exitPerimeter=0;" parent="1" source="685" target="667" edge="1">
                    <mxGeometry width="50" height="50" relative="1" as="geometry">
                        <mxPoint x="1660" y="2920" as="sourcePoint"/>
                        <mxPoint x="1680" y="2920" as="targetPoint"/>
                    </mxGeometry>
                </mxCell>
                <mxCell id="669" value="D&lt;sub&gt;0&lt;/sub&gt;" style="edgeLabel;html=1;align=left;verticalAlign=middle;resizable=0;points=[];fontSize=30;" parent="668" vertex="1" connectable="0">
                    <mxGeometry x="0.28" relative="1" as="geometry">
                        <mxPoint x="11" y="5" as="offset"/>
                    </mxGeometry>
                </mxCell>
            </root>
        </mxGraphModel>
    </diagram>
</mxfile>